<svg width="70" height="71" viewBox="0 0 70 71" fill="none" xmlns="http://www.w3.org/2000/svg">
<rect y="0.241211" width="70" height="70" rx="10" fill="#E6E6E6"/>
<path d="M20.4291 56.1613C29.6326 60.7662 40.8265 57.0383 45.4315 47.8348C50.0364 38.6313 46.3085 27.4373 37.105 22.8324C27.9015 18.2274 16.7075 21.9553 12.1026 31.1589C7.49765 40.3624 11.2255 51.5563 20.4291 56.1613Z" fill="white"/>
<path d="M52.8426 25.1438C57.0049 27.2263 62.0673 25.5404 64.1499 21.3781C66.2324 17.2159 64.5465 12.1534 60.3842 10.0709C56.222 7.9883 51.1595 9.67423 49.077 13.8365C46.9944 17.9988 48.6803 23.0612 52.8426 25.1438Z" fill="#F2BFAF" stroke="#2D2D2D" stroke-width="2" stroke-miterlimit="10"/>
<path d="M23.4511 57.3324C24.1437 56.5193 24.7352 55.6251 25.2126 54.6696C26.7814 51.5341 27.0404 47.9039 25.9326 44.5775C24.8249 41.2511 22.4411 38.501 19.3056 36.9322C16.5974 35.5708 13.5021 35.1868 10.5434 35.8452" stroke="#F8D57E" stroke-width="2" stroke-miterlimit="10"/>
<path d="M35.2787 21.6628C34.3071 22.6289 33.4996 23.7471 32.8879 24.9732C31.3867 27.9735 31.1384 31.4472 32.1978 34.6305C33.2571 37.8138 35.5373 40.4461 38.537 41.9486C41.1741 43.2733 44.193 43.6293 47.0659 42.9542" stroke="#F8D57E" stroke-width="2" stroke-miterlimit="10"/>
<path d="M25.3143 53.9663L23.4025 57.0251L18.0496 53.9663L14.226 50.9075L11.1672 45.9369L10.0201 40.9663L10.7848 35.9957H14.226L18.8143 36.7604L23.7848 40.584L25.3143 44.4075L26.4613 48.9957L25.3143 53.9663Z" fill="#F8D57E"/>
<path d="M33.4975 24.6003L35.6262 21.6883L40.7431 25.1274L44.3346 28.4556L47.0247 33.6351L47.808 38.6758L46.6847 43.5778L43.2526 43.3281L38.7319 42.2325L34.0519 38.0584L31.9928 33.6351L31.9928 29.4746L33.4975 24.6003Z" fill="#F8D57E"/>
<path d="M20.4291 56.1613C29.6326 60.7662 40.8265 57.0383 45.4315 47.8348C50.0364 38.6313 46.3085 27.4373 37.105 22.8324C27.9015 18.2274 16.7075 21.9553 12.1026 31.1589C7.49765 40.3624 11.2255 51.5563 20.4291 56.1613Z" stroke="#2D2D2D" stroke-width="2" stroke-miterlimit="10"/>
</svg>
