<svg width="30" height="36" viewBox="0 0 30 36" fill="none" xmlns="http://www.w3.org/2000/svg">
<g clip-path="url(#clip0_1132_629)">
<path d="M29.2178 27.5173C28.6885 28.7402 28.0619 29.8657 27.336 30.9006C26.3466 32.3113 25.5364 33.2879 24.912 33.8301C23.9442 34.7202 22.9072 35.1761 21.7967 35.202C20.9995 35.202 20.0381 34.9751 18.919 34.515C17.7963 34.057 16.7644 33.8301 15.821 33.8301C14.8315 33.8301 13.7703 34.057 12.6352 34.515C11.4984 34.9751 10.5826 35.215 9.8824 35.2387C8.81752 35.2841 7.75611 34.8153 6.69664 33.8301C6.02042 33.2403 5.17462 32.2292 4.16138 30.7969C3.07425 29.2673 2.18048 27.4936 1.48029 25.4714C0.730406 23.2872 0.354492 21.1722 0.354492 19.1245C0.354492 16.7789 0.861328 14.7559 1.87651 13.0606C2.67436 11.6989 3.73577 10.6248 5.06422 9.8362C6.39266 9.04764 7.82805 8.6458 9.37384 8.62009C10.2196 8.62009 11.3288 8.88172 12.7072 9.3959C14.0816 9.91181 14.9642 10.1734 15.3511 10.1734C15.6404 10.1734 16.6208 9.86752 18.2828 9.25764C19.8545 8.69204 21.181 8.45785 22.2677 8.5501C25.2123 8.78774 27.4246 9.94854 28.8959 12.0398C26.2623 13.6355 24.9596 15.8705 24.9855 18.7376C25.0093 20.9708 25.8194 22.8292 27.4117 24.3048C28.1332 24.9896 28.9391 25.519 29.8356 25.8949C29.6412 26.4587 29.436 26.9988 29.2178 27.5173ZM22.4643 0.941936C22.4643 2.69233 21.8248 4.32668 20.5501 5.83941C19.0119 7.63775 17.1514 8.67691 15.1337 8.51294C15.108 8.30294 15.0931 8.08193 15.0931 7.84969C15.0931 6.16931 15.8246 4.37097 17.1237 2.90058C17.7723 2.1561 18.5971 1.53707 19.5974 1.04326C20.5955 0.556817 21.5396 0.287805 22.4276 0.241737C22.4535 0.475738 22.4643 0.709754 22.4643 0.941914V0.941936Z" fill="#2D2D2D"/>
</g>
<defs>
<clipPath id="clip0_1132_629">
<rect width="29.4812" height="35" fill="white" transform="translate(0.354492 0.241211)"/>
</clipPath>
</defs>
</svg>
