<svg width="169" height="33" viewBox="0 0 169 33" fill="none" xmlns="http://www.w3.org/2000/svg">
<path d="M7.074 10.0292C8.298 10.0292 9.384 10.3052 10.332 10.8572C11.292 11.3972 12.036 12.1592 12.564 13.1432C13.104 14.1152 13.374 15.2252 13.374 16.4732C13.374 17.7212 13.104 18.8372 12.564 19.8212C12.036 20.7932 11.292 21.5552 10.332 22.1072C9.384 22.6472 8.298 22.9172 7.074 22.9172C5.838 22.9172 4.74 22.6472 3.78 22.1072C2.832 21.5552 2.088 20.7932 1.548 19.8212C1.02 18.8372 0.756 17.7212 0.756 16.4732C0.756 15.2252 1.02 14.1152 1.548 13.1432C2.088 12.1592 2.832 11.3972 3.78 10.8572C4.74 10.3052 5.838 10.0292 7.074 10.0292ZM7.074 10.9472C5.994 10.9472 5.052 11.1752 4.248 11.6312C3.444 12.0752 2.826 12.7172 2.394 13.5572C1.962 14.3852 1.746 15.3572 1.746 16.4732C1.746 17.5772 1.962 18.5492 2.394 19.3892C2.826 20.2172 3.444 20.8652 4.248 21.3332C5.052 21.7892 5.994 22.0172 7.074 22.0172C8.142 22.0172 9.078 21.7892 9.882 21.3332C10.686 20.8652 11.304 20.2172 11.736 19.3892C12.168 18.5492 12.384 17.5772 12.384 16.4732C12.384 15.3572 12.168 14.3852 11.736 13.5572C11.304 12.7172 10.686 12.0752 9.882 11.6312C9.09 11.1752 8.154 10.9472 7.074 10.9472ZM7.056 12.3692C6.3 12.3692 5.622 12.5372 5.022 12.8732C4.422 13.2092 3.948 13.6892 3.6 14.3132C3.264 14.9252 3.096 15.6392 3.096 16.4552C3.096 17.2712 3.264 17.9912 3.6 18.6152C3.948 19.2392 4.422 19.7192 5.022 20.0552C5.622 20.3912 6.3 20.5592 7.056 20.5592C7.98 20.5592 8.778 20.3072 9.45 19.8032C10.122 19.2872 10.56 18.6092 10.764 17.7692H8.55C8.418 18.1052 8.226 18.3632 7.974 18.5432C7.734 18.7232 7.41 18.8132 7.002 18.8132C6.45 18.8132 6.012 18.6152 5.688 18.2192C5.376 17.8112 5.22 17.2232 5.22 16.4552C5.22 15.6872 5.376 15.1052 5.688 14.7092C6.012 14.3132 6.45 14.1152 7.002 14.1152C7.386 14.1152 7.71 14.2052 7.974 14.3852C8.25 14.5652 8.442 14.8232 8.55 15.1592H10.764C10.56 14.2952 10.122 13.6172 9.45 13.1252C8.79 12.6212 7.992 12.3692 7.056 12.3692Z" fill="#2D2D2D"/>
<path d="M35.404 14.0972C35.404 14.7692 35.242 15.3992 34.918 15.9872C34.606 16.5752 34.108 17.0492 33.424 17.4092C32.752 17.7692 31.9 17.9492 30.868 17.9492H28.762V22.7732H26.242V10.2092H30.868C31.84 10.2092 32.668 10.3772 33.352 10.7132C34.036 11.0492 34.546 11.5112 34.882 12.0992C35.23 12.6872 35.404 13.3532 35.404 14.0972ZM30.76 15.9152C31.456 15.9152 31.972 15.7592 32.308 15.4472C32.644 15.1232 32.812 14.6732 32.812 14.0972C32.812 12.8732 32.128 12.2612 30.76 12.2612H28.762V15.9152H30.76ZM39.7132 12.2432V15.3932H43.9432V17.3912H39.7132V20.7212H44.4832V22.7732H37.1932V10.1912H44.4832V12.2432H39.7132ZM55.3233 10.2092V12.2432H51.9753V22.7732H49.4553V12.2432H46.1073V10.2092H55.3233ZM73.9559 10.2092L70.4459 22.7732H67.4759L65.1179 13.8272L62.6519 22.7732L59.6999 22.7912L56.3159 10.2092H59.0159L61.2299 19.9652L63.7859 10.2092H66.5939L69.0059 19.9112L71.2379 10.2092H73.9559ZM81.4334 22.8992C80.2574 22.8992 79.1774 22.6232 78.1934 22.0712C77.2094 21.5192 76.4294 20.7572 75.8534 19.7852C75.2774 18.8012 74.9894 17.6912 74.9894 16.4552C74.9894 15.2312 75.2774 14.1332 75.8534 13.1612C76.4294 12.1772 77.2094 11.4092 78.1934 10.8572C79.1774 10.3052 80.2574 10.0292 81.4334 10.0292C82.6214 10.0292 83.7014 10.3052 84.6734 10.8572C85.6574 11.4092 86.4314 12.1772 86.9954 13.1612C87.5714 14.1332 87.8594 15.2312 87.8594 16.4552C87.8594 17.6912 87.5714 18.8012 86.9954 19.7852C86.4314 20.7572 85.6574 21.5192 84.6734 22.0712C83.6894 22.6232 82.6094 22.8992 81.4334 22.8992ZM81.4334 20.6492C82.1894 20.6492 82.8554 20.4812 83.4314 20.1452C84.0074 19.7972 84.4574 19.3052 84.7814 18.6692C85.1054 18.0332 85.2674 17.2952 85.2674 16.4552C85.2674 15.6152 85.1054 14.8832 84.7814 14.2592C84.4574 13.6232 84.0074 13.1372 83.4314 12.8012C82.8554 12.4652 82.1894 12.2972 81.4334 12.2972C80.6774 12.2972 80.0054 12.4652 79.4174 12.8012C78.8414 13.1372 78.3914 13.6232 78.0674 14.2592C77.7434 14.8832 77.5814 15.6152 77.5814 16.4552C77.5814 17.2952 77.7434 18.0332 78.0674 18.6692C78.3914 19.3052 78.8414 19.7972 79.4174 20.1452C80.0054 20.4812 80.6774 20.6492 81.4334 20.6492ZM96.2142 22.7732L93.4422 17.8772H92.2542V22.7732H89.7342V10.2092H94.4502C95.4222 10.2092 96.2502 10.3832 96.9342 10.7312C97.6182 11.0672 98.1282 11.5292 98.4642 12.1172C98.8122 12.6932 98.9862 13.3412 98.9862 14.0612C98.9862 14.8892 98.7462 15.6392 98.2662 16.3112C97.7862 16.9712 97.0722 17.4272 96.1242 17.6792L99.1302 22.7732H96.2142ZM92.2542 15.9872H94.3602C95.0442 15.9872 95.5542 15.8252 95.8902 15.5012C96.2262 15.1652 96.3942 14.7032 96.3942 14.1152C96.3942 13.5392 96.2262 13.0952 95.8902 12.7832C95.5542 12.4592 95.0442 12.2972 94.3602 12.2972H92.2542V15.9872ZM103.785 20.7752H107.925V22.7732H101.265V10.2092H103.785V20.7752ZM113.919 10.2092C115.239 10.2092 116.397 10.4672 117.393 10.9832C118.401 11.4992 119.175 12.2372 119.715 13.1972C120.267 14.1452 120.543 15.2492 120.543 16.5092C120.543 17.7692 120.267 18.8732 119.715 19.8212C119.175 20.7572 118.401 21.4832 117.393 21.9992C116.397 22.5152 115.239 22.7732 113.919 22.7732H109.527V10.2092H113.919ZM113.829 20.6312C115.149 20.6312 116.169 20.2712 116.889 19.5512C117.609 18.8312 117.969 17.8172 117.969 16.5092C117.969 15.2012 117.609 14.1812 116.889 13.4492C116.169 12.7052 115.149 12.3332 113.829 12.3332H112.047V20.6312H113.829ZM127.223 19.9292C128.375 18.9692 129.293 18.1712 129.977 17.5352C130.661 16.8872 131.231 16.2152 131.687 15.5192C132.143 14.8232 132.371 14.1392 132.371 13.4672C132.371 12.8552 132.227 12.3752 131.939 12.0272C131.651 11.6792 131.207 11.5052 130.607 11.5052C130.007 11.5052 129.545 11.7092 129.221 12.1172C128.897 12.5132 128.729 13.0592 128.717 13.7552H126.269C126.317 12.3152 126.743 11.2232 127.547 10.4792C128.363 9.73519 129.395 9.36319 130.643 9.36319C132.011 9.36319 133.061 9.72919 133.793 10.4612C134.525 11.1812 134.891 12.1352 134.891 13.3232C134.891 14.2592 134.639 15.1532 134.135 16.0052C133.631 16.8572 133.055 17.6012 132.407 18.2372C131.759 18.8612 130.913 19.6172 129.869 20.5052H135.179V22.5932H126.287V20.7212L127.223 19.9292ZM136.767 16.0412C136.767 13.9652 137.139 12.3392 137.883 11.1632C138.639 9.98719 139.887 9.39919 141.627 9.39919C143.367 9.39919 144.609 9.98719 145.353 11.1632C146.109 12.3392 146.487 13.9652 146.487 16.0412C146.487 18.1292 146.109 19.7672 145.353 20.9552C144.609 22.1432 143.367 22.7372 141.627 22.7372C139.887 22.7372 138.639 22.1432 137.883 20.9552C137.139 19.7672 136.767 18.1292 136.767 16.0412ZM144.003 16.0412C144.003 15.1532 143.943 14.4092 143.823 13.8092C143.715 13.1972 143.487 12.6992 143.139 12.3152C142.803 11.9312 142.299 11.7392 141.627 11.7392C140.955 11.7392 140.445 11.9312 140.097 12.3152C139.761 12.6992 139.533 13.1972 139.413 13.8092C139.305 14.4092 139.251 15.1532 139.251 16.0412C139.251 16.9532 139.305 17.7212 139.413 18.3452C139.521 18.9572 139.749 19.4552 140.097 19.8392C140.445 20.2112 140.955 20.3972 141.627 20.3972C142.299 20.3972 142.809 20.2112 143.157 19.8392C143.505 19.4552 143.733 18.9572 143.841 18.3452C143.949 17.7212 144.003 16.9532 144.003 16.0412ZM149.195 19.9292C150.347 18.9692 151.265 18.1712 151.949 17.5352C152.633 16.8872 153.203 16.2152 153.659 15.5192C154.115 14.8232 154.343 14.1392 154.343 13.4672C154.343 12.8552 154.199 12.3752 153.911 12.0272C153.623 11.6792 153.179 11.5052 152.579 11.5052C151.979 11.5052 151.517 11.7092 151.193 12.1172C150.869 12.5132 150.701 13.0592 150.689 13.7552H148.241C148.289 12.3152 148.715 11.2232 149.519 10.4792C150.335 9.73519 151.367 9.36319 152.615 9.36319C153.983 9.36319 155.033 9.72919 155.765 10.4612C156.497 11.1812 156.863 12.1352 156.863 13.3232C156.863 14.2592 156.611 15.1532 156.107 16.0052C155.603 16.8572 155.027 17.6012 154.379 18.2372C153.731 18.8612 152.885 19.6172 151.841 20.5052H157.151V22.5932H148.259V20.7212L149.195 19.9292ZM159.531 19.9292C160.683 18.9692 161.601 18.1712 162.285 17.5352C162.969 16.8872 163.539 16.2152 163.995 15.5192C164.451 14.8232 164.679 14.1392 164.679 13.4672C164.679 12.8552 164.535 12.3752 164.247 12.0272C163.959 11.6792 163.515 11.5052 162.915 11.5052C162.315 11.5052 161.853 11.7092 161.529 12.1172C161.205 12.5132 161.037 13.0592 161.025 13.7552H158.577C158.625 12.3152 159.051 11.2232 159.855 10.4792C160.671 9.73519 161.703 9.36319 162.951 9.36319C164.319 9.36319 165.369 9.72919 166.101 10.4612C166.833 11.1812 167.199 12.1352 167.199 13.3232C167.199 14.2592 166.947 15.1532 166.443 16.0052C165.939 16.8572 165.363 17.6012 164.715 18.2372C164.067 18.8612 163.221 19.6172 162.177 20.5052H167.487V22.5932H158.595V20.7212L159.531 19.9292Z" fill="#2D2D2D"/>
</svg>
