<svg width="14" height="13" viewBox="0 0 14 13" fill="none" xmlns="http://www.w3.org/2000/svg">
<path d="M7.074 0.0291933C8.298 0.0291933 9.384 0.305193 10.332 0.857192C11.292 1.39719 12.036 2.15919 12.564 3.14319C13.104 4.11519 13.374 5.22519 13.374 6.47319C13.374 7.72119 13.104 8.83719 12.564 9.82119C12.036 10.7932 11.292 11.5552 10.332 12.1072C9.384 12.6472 8.298 12.9172 7.074 12.9172C5.838 12.9172 4.74 12.6472 3.78 12.1072C2.832 11.5552 2.088 10.7932 1.548 9.82119C1.02 8.83719 0.756 7.72119 0.756 6.47319C0.756 5.22519 1.02 4.11519 1.548 3.14319C2.088 2.15919 2.832 1.39719 3.78 0.857192C4.74 0.305193 5.838 0.0291933 7.074 0.0291933ZM7.074 0.947193C5.994 0.947193 5.052 1.17519 4.248 1.63119C3.444 2.07519 2.826 2.71719 2.394 3.55719C1.962 4.38519 1.746 5.35719 1.746 6.47319C1.746 7.57719 1.962 8.54919 2.394 9.38919C2.826 10.2172 3.444 10.8652 4.248 11.3332C5.052 11.7892 5.994 12.0172 7.074 12.0172C8.142 12.0172 9.078 11.7892 9.882 11.3332C10.686 10.8652 11.304 10.2172 11.736 9.38919C12.168 8.54919 12.384 7.57719 12.384 6.47319C12.384 5.35719 12.168 4.38519 11.736 3.55719C11.304 2.71719 10.686 2.07519 9.882 1.63119C9.09 1.17519 8.154 0.947193 7.074 0.947193ZM7.056 2.36919C6.3 2.36919 5.622 2.53719 5.022 2.87319C4.422 3.20919 3.948 3.68919 3.6 4.31319C3.264 4.92519 3.096 5.63919 3.096 6.45519C3.096 7.27119 3.264 7.99119 3.6 8.61519C3.948 9.23919 4.422 9.71919 5.022 10.0552C5.622 10.3912 6.3 10.5592 7.056 10.5592C7.98 10.5592 8.778 10.3072 9.45 9.80319C10.122 9.28719 10.56 8.60919 10.764 7.76919H8.55C8.418 8.10519 8.226 8.36319 7.974 8.54319C7.734 8.72319 7.41 8.81319 7.002 8.81319C6.45 8.81319 6.012 8.61519 5.688 8.21919C5.376 7.81119 5.22 7.22319 5.22 6.45519C5.22 5.68719 5.376 5.10519 5.688 4.70919C6.012 4.31319 6.45 4.11519 7.002 4.11519C7.386 4.11519 7.71 4.20519 7.974 4.38519C8.25 4.56519 8.442 4.82319 8.55 5.15919H10.764C10.56 4.29519 10.122 3.61719 9.45 3.12519C8.79 2.62119 7.992 2.36919 7.056 2.36919Z" fill="#2D2D2D"/>
</svg>
