<svg width="70" height="71" viewBox="0 0 70 71" fill="none" xmlns="http://www.w3.org/2000/svg">
<rect y="0.241211" width="70" height="70" rx="10" fill="#E6E6E6"/>
<path d="M29.5294 37.653L31.8235 40.3294L27.6176 44.5353L29.5294 46.0647L26.4706 47.5941L24.5588 46.0647H21.1176L18.4412 48.7412V51.8L19.9706 54.4765L18.4412 56.7706L15 51.8L15.7647 47.5941L18.4412 44.5353L29.5294 37.653Z" fill="#009379"/>
<path d="M30.6765 48.3588L29.5294 45.6824L26.8529 47.2118V49.5059V52.5647L25.3235 54.0941H22.647L20.3529 53.7118L18.4412 56.3883L21.1176 57.5353H25.3235L28.3823 55.6235L30.2941 52.5647L30.6765 48.3588Z" fill="#009379"/>
<path d="M20.3704 43.1641L34.5515 34.3677V30.0708L57.4154 18.8861L27.7873 44.0492" stroke="#2D2D2D" stroke-width="2" stroke-linecap="round" stroke-linejoin="round"/>
<path d="M20.3952 43.2186C18.9575 43.802 17.7265 44.8011 16.8598 46.088C15.993 47.3749 15.5299 48.8911 15.5297 50.4426C15.5297 52.5107 16.3512 54.4941 17.8135 55.9564C19.2759 57.4187 21.2592 58.2403 23.3273 58.2403C25.3954 58.2403 27.3787 57.4187 28.8411 55.9564C30.3034 54.4941 31.125 52.5107 31.125 50.4426C31.1246 49.1875 30.8215 47.9509 30.2414 46.8379C29.6612 45.7249 28.8211 44.7683 27.7923 44.0493" stroke="#2D2D2D" stroke-width="2" stroke-linecap="round" stroke-linejoin="round"/>
<path d="M27.5708 31.1128L28.3355 27.1142L24.0008 26.1021L24.8767 23.8159L21.4644 24.0433L20.5885 26.3295L17.6198 28.0697L13.9573 27.1142L12.4104 24.4753L12.3764 21.3929L9.8968 20.1871L9.89677 25.7599L12.2283 29.4573L16.0842 30.7426L27.5708 31.1128Z" fill="#009379"/>
<path d="M24.7061 21.2566L25.0701 24.1457L21.9876 24.1798L21.4532 21.1717L18.7767 18.8776L15.7179 18.4952L13.8061 20.0246L13.093 21.8592L10.0902 20.517L11.8191 18.1739L14.5708 15.4364L18.7767 15.054L21.9876 16.9658L24.7061 21.2566Z" fill="#009379"/>
<path d="M23.2728 54.8681C25.7279 54.8681 27.718 52.8779 27.718 50.4229C27.718 47.9678 25.7279 45.9777 23.2728 45.9777C20.8178 45.9777 18.8276 47.9678 18.8276 50.4229C18.8276 52.8779 20.8178 54.8681 23.2728 54.8681Z" stroke="#2D2D2D" stroke-width="2" stroke-linecap="round" stroke-linejoin="round"/>
<path d="M36.3465 29.1907L24.1827 26.5651" stroke="#2D2D2D" stroke-width="2" stroke-linecap="round" stroke-linejoin="round"/>
<path d="M37.6616 35.668L62.1819 34.7681L43.4715 30.7283" stroke="#2D2D2D" stroke-width="2" stroke-linecap="round" stroke-linejoin="round"/>
<path d="M17.8635 30.7877L34.517 31.8459" stroke="#2D2D2D" stroke-width="2" stroke-linecap="round" stroke-linejoin="round"/>
<path d="M18.0613 30.7928C16.5175 30.9578 14.9596 30.6581 13.5871 29.9323C12.2147 29.2064 11.0902 28.0873 10.3576 26.7184C9.87411 25.8159 9.5732 24.827 9.47207 23.8082C9.37094 22.7893 9.47157 21.7606 9.76821 20.7807C10.0649 19.8007 10.5517 18.8888 11.2009 18.0971C11.8501 17.3055 12.649 16.6494 13.5518 16.1666C14.4544 15.6828 15.4434 15.3816 16.4624 15.28C17.4814 15.1785 18.5105 15.2786 19.4908 15.5748C20.471 15.8709 21.3834 16.3573 22.1757 17.006C22.9681 17.6548 23.6248 18.4533 24.1086 19.3559C24.7002 20.4627 25.0163 21.6959 25.0301 22.9509C25.0439 24.2058 24.7549 25.4456 24.1877 26.5652" stroke="#2D2D2D" stroke-width="2" stroke-linecap="round" stroke-linejoin="round"/>
<path d="M17.1959 27.5293C19.651 27.5293 21.6411 25.5391 21.6411 23.0841C21.6411 20.629 19.651 18.6389 17.1959 18.6389C14.7409 18.6389 12.7507 20.629 12.7507 23.0841C12.7507 25.5391 14.7409 27.5293 17.1959 27.5293Z" stroke="#2D2D2D" stroke-width="2" stroke-linecap="round" stroke-linejoin="round"/>
<path d="M38.6147 31.3168C38.6147 31.1824 38.7237 31.0734 38.8582 31.0734C38.9927 31.0734 39.1017 31.1824 39.1017 31.3168C39.1017 31.4513 38.9927 31.5603 38.8582 31.5603C38.7237 31.5603 38.6147 31.4513 38.6147 31.3168Z" fill="#2D2D2D" stroke="#2D2D2D" stroke-width="2"/>
</svg>
