<svg width="142" height="36" viewBox="0 0 142 36" fill="none" xmlns="http://www.w3.org/2000/svg">
<g clip-path="url(#clip0_1132_596)">
<path d="M1.53589 7.88808C1.53589 7.88808 4.98866 22.0366 5.53971 24.3331C6.18289 27.0135 7.34177 28.0001 10.6831 27.3348L12.8391 18.5628C13.3855 16.3839 13.752 14.8305 14.1033 12.614H14.165C14.4119 14.8523 14.7633 16.3904 15.213 18.5704C15.213 18.5704 16.0906 22.5527 16.5401 24.6443C16.9907 26.7351 18.2448 28.0529 21.5176 27.3355L26.6548 7.88957H22.5071L20.7533 16.297C20.2818 18.7442 19.8539 20.6564 19.524 22.8953H19.4655C19.1657 20.6788 18.7843 18.8423 18.3049 16.458L16.4788 7.88957H12.1573L10.2039 16.2421C9.65055 18.7802 9.13296 20.8297 8.80381 22.9926H8.7442C8.40713 20.9557 7.95818 18.3798 7.47202 15.9229C7.47202 15.9229 6.3115 9.94881 5.90432 7.88957L1.53629 7.89013L1.53589 7.88808ZM41.0754 7.88808V27.334H45.0243V23.2048V7.88715H41.0754V7.88808ZM96.6924 7.88808V22.2337C96.6924 24.2116 97.0646 25.5973 97.8609 26.4439C98.5567 27.1843 99.7027 27.6637 101.076 27.6637C102.243 27.6637 103.392 27.4423 103.934 27.2407L103.883 24.1547C103.48 24.2538 103.016 24.3332 102.383 24.3332C101.037 24.3332 100.586 23.4716 100.586 21.6957V16.2071H104.025V12.4866H100.586V7.88814H96.6922L96.6924 7.88808ZM32.2504 12.3961C29.7962 12.3961 27.8481 13.0851 26.7862 13.6988L27.5633 16.3599C28.5352 15.7472 30.0826 15.24 31.5478 15.24C33.9737 15.2338 34.3702 16.6117 34.3702 17.4954V17.7044C29.0843 17.6964 25.7455 19.5255 25.7455 23.254C25.7455 25.5304 27.4451 27.6637 30.4007 27.6637C32.22 27.6637 33.7416 26.9381 34.6535 25.7755H34.7429C34.7429 25.7755 35.3468 28.3003 38.6736 27.3348C38.4988 26.284 38.4421 25.1636 38.4421 23.8141V18.6192C38.4421 15.3083 37.0284 12.3961 32.2504 12.3961L32.2504 12.3961ZM55.8725 12.3961C53.4014 12.3961 52.2909 13.6484 51.6176 14.7108H51.5591V12.7258H47.7905V27.335H51.7604V18.7673C51.7604 18.3657 51.8063 17.9409 51.9465 17.5714C52.2754 16.7088 53.078 15.6998 54.3594 15.6998C55.9612 15.6998 56.7108 17.0541 56.7108 19.0085V27.3348H60.6764V18.6635C60.6764 18.2801 60.729 17.8183 60.8418 17.4793C61.1679 16.4981 62.0331 15.6997 63.2241 15.6997C64.8481 15.6997 65.6275 17.0304 65.6275 19.3302V27.3348H69.5959V18.7305C69.5959 14.1928 67.2918 12.3961 64.6908 12.3961C63.5389 12.3961 62.6297 12.685 61.8077 13.1896C61.1167 13.6136 60.4982 14.216 59.9576 15.0092H59.8991C59.27 13.4348 57.7942 12.3961 55.8718 12.3961L55.8725 12.3961ZM77.6726 12.3961C75.219 12.3961 73.2713 13.0851 72.2084 13.6988L72.9866 16.3599C73.9575 15.7472 75.5059 15.24 76.9704 15.24C79.3945 15.2338 79.7921 16.6117 79.7921 17.4954V17.7044C74.5069 17.6964 71.1677 19.5255 71.1677 23.254C71.1677 25.5304 72.8682 27.6637 75.8253 27.6637C77.6432 27.6637 79.1653 26.9381 80.0755 25.7755H80.1653C80.1653 25.7755 80.769 28.3003 84.0963 27.3348C83.9213 26.284 83.8652 25.1636 83.8652 23.8141V18.6192C83.8652 15.3083 82.4511 12.3961 77.6726 12.3961L77.6726 12.3961ZM94.1587 12.3961C92.6385 12.3961 90.909 13.3774 90.183 15.4809H90.0722V12.7257H86.4984V27.3348H90.5724V19.854C90.5724 19.4504 90.5969 19.0985 90.6607 18.7759C90.962 17.2088 92.1606 16.2071 93.8809 16.2071C94.3531 16.2071 94.6911 16.2582 95.0567 16.311V12.4864C94.7501 12.4245 94.5404 12.3959 94.159 12.3959L94.1587 12.3961ZM34.4978 20.2932V22.1157C34.4978 22.3853 34.4743 22.6634 34.3996 22.9066C34.094 23.9188 33.0454 24.7742 31.7346 24.7742C30.6418 24.7742 29.7736 24.1539 29.7736 22.8419C29.7736 20.8349 31.9829 20.2801 34.4979 20.2932H34.4978ZM79.92 20.2932V22.1157C79.92 22.3853 79.896 22.6634 79.8218 22.9066C79.5162 23.9188 78.468 24.7742 77.1572 24.7742C76.0641 24.7742 75.1959 24.1539 75.1959 22.8419C75.1959 20.8349 77.4051 20.2801 79.9201 20.2932H79.92Z" fill="#2D2D2D"/>
<path d="M125.377 0.855247C124.102 0.855247 123.089 1.56718 123.089 2.43388L123.863 11.2008C123.949 11.729 124.596 12.1364 125.378 12.1364C126.161 12.1354 126.806 11.7283 126.893 11.2008L127.671 2.43388C127.671 1.56726 126.655 0.855322 125.379 0.855322L125.377 0.855247ZM112.76 7.88767C112.098 7.90337 111.346 8.40447 110.868 9.23367C110.228 10.3378 110.342 11.5717 111.09 12.0046L119.069 15.7202C119.567 15.9056 120.244 15.5517 120.636 14.8758C120.636 14.8758 120.636 14.8756 120.636 14.8755C121.03 14.1963 120.999 13.4327 120.585 13.094L113.379 8.03972C113.192 7.93132 112.981 7.88254 112.76 7.88778L112.76 7.88767ZM137.994 7.88767C137.774 7.88243 137.563 7.93121 137.377 8.03961L130.17 13.0939C129.757 13.4326 129.727 14.1962 130.119 14.8754L130.119 14.8757C130.512 15.5515 131.187 15.9055 131.686 15.7201L139.668 12.0047C140.419 11.5718 140.527 10.338 139.892 9.23374C139.411 8.40452 138.658 7.90345 137.996 7.88774L137.994 7.88767ZM119.367 19.4544C119.263 19.453 119.163 19.4689 119.07 19.5042L111.091 23.2153C110.343 23.6501 110.229 24.8845 110.869 25.9898C111.507 27.0918 112.631 27.6157 113.379 27.1835L120.586 22.1332C121.001 21.7903 121.031 21.0269 120.637 20.3484L120.64 20.3499C120.322 19.7973 119.814 19.4604 119.367 19.4543L119.367 19.4544ZM131.391 19.4544C130.944 19.4605 130.437 19.7974 130.118 20.35L130.121 20.3485C129.729 21.027 129.759 21.7904 130.171 22.1333L137.378 27.1837C138.125 27.6158 139.251 27.0919 139.891 25.9899C140.526 24.8846 140.419 23.6502 139.667 23.2155L131.688 19.5043C131.594 19.4691 131.494 19.4531 131.391 19.4545L131.391 19.4544ZM125.376 23.0878C124.595 23.0887 123.949 23.4944 123.864 24.0212L123.09 32.7878C123.09 33.6559 124.103 34.3664 125.378 34.3664C126.655 34.3664 127.671 33.6559 127.671 32.7878L126.895 24.0212C126.807 23.4944 126.162 23.0888 125.379 23.0878H125.376H125.376Z" fill="#2D2D2D"/>
</g>
<defs>
<clipPath id="clip0_1132_596">
<rect width="140.258" height="35" fill="white" transform="translate(0.833862 0.241211)"/>
</clipPath>
</defs>
</svg>
