<svg width="134" height="36" viewBox="0 0 134 36" fill="none" xmlns="http://www.w3.org/2000/svg">
<path fill-rule="evenodd" clip-rule="evenodd" d="M117.682 10.5682C117.682 9.94235 117.178 9.43556 116.552 9.43556H114.877C114.25 9.43556 113.746 9.94448 113.746 10.5703V28.0883C113.746 28.7148 114.251 29.2216 114.877 29.2216H116.553C117.178 29.2216 117.682 28.712 117.682 28.0869V10.5682ZM119.818 11.0336V11.8669C119.818 12.2104 120.099 12.4891 120.444 12.4891H131.999C132.527 12.4891 132.954 12.0636 132.954 11.5368V10.127C132.954 9.5995 132.522 9.12265 131.999 9.17468C131.999 9.17468 120.827 10.2709 120.469 10.3109C120.289 10.3267 120.122 10.41 120.001 10.5441C119.88 10.6782 119.815 10.8531 119.818 11.0336ZM110.462 29.2223C107.588 29.2223 105.778 27.0419 105.778 24.6156L105.776 17.6062H104.954C104.85 17.6063 104.747 17.5858 104.651 17.5461C104.554 17.5063 104.467 17.448 104.393 17.3745C104.32 17.301 104.261 17.2137 104.221 17.1175C104.181 17.0214 104.161 16.9183 104.161 16.8143V15.641C104.161 15.2027 104.517 14.8498 104.957 14.8498L105.776 14.8513L105.775 10.5418C105.775 9.93165 106.266 9.43698 106.878 9.43698H108.512C109.121 9.43698 109.615 9.93522 109.615 10.5454V14.852L112.161 14.8513C112.599 14.8513 112.957 15.2034 112.957 15.6424V16.8157C112.957 17.2548 112.601 17.6076 112.164 17.6076L109.615 17.6069L109.618 24.0903C109.618 25.3626 110.389 26.2315 111.766 26.2315H111.998C112.474 26.2315 112.862 26.6143 112.862 27.0904V28.3627C112.862 28.8403 112.476 29.223 112 29.223H110.462V29.2223ZM83.5419 14.3459C78.8945 14.3459 76.2886 17.9825 76.2886 21.8151C76.2886 25.8994 79.0798 29.4939 83.5725 29.4939C86.6475 29.4939 89.6782 27.8737 90.2506 25.2144C90.3283 24.8551 90.0866 24.3847 89.5813 24.3818L87.3831 24.3833C86.9846 24.3833 86.6589 24.5743 86.4629 24.8623C85.8335 25.7839 84.9133 26.2736 83.5518 26.2736C81.6266 26.2736 80.293 24.7575 80.1925 23.076H89.535C90.3953 23.076 90.7809 22.6084 90.7809 21.8144C90.7809 18.0787 88.5677 14.3459 83.5419 14.3459ZM83.5419 17.3453C85.2568 17.3453 86.738 18.5656 86.8884 20.2171H80.2203C80.3707 18.5656 81.8269 17.3453 83.5419 17.3453ZM126.117 14.3459C121.469 14.3459 118.862 17.9825 118.862 21.8151C118.862 25.8994 121.654 29.4939 126.146 29.4939C129.221 29.4939 132.252 27.8737 132.824 25.2144C132.902 24.8551 132.661 24.3847 132.155 24.3818L129.958 24.3833C129.558 24.3833 129.233 24.5743 129.037 24.8623C128.407 25.7839 127.487 26.2736 126.126 26.2736C124.2 26.2736 122.867 24.7575 122.766 23.076H132.109C132.969 23.076 133.355 22.6084 133.355 21.8144C133.355 18.0787 131.141 14.3459 126.117 14.3459ZM126.117 17.3453C127.831 17.3453 129.313 18.5656 129.462 20.2171H122.794C122.944 18.5656 124.4 17.3453 126.117 17.3453Z" fill="#2D2D2D"/>
<path fill-rule="evenodd" clip-rule="evenodd" d="M102.634 9.63152H72.3696C71.6818 9.63152 71.1266 10.1903 71.1266 10.8782L71.2299 22.7639C71.2299 22.7639 64.7093 10.9837 64.3693 10.3835C64.0493 9.81827 63.3629 9.29723 62.412 9.29723H59.9237C59.2352 9.29723 58.6785 9.85605 58.6785 10.5439L58.6799 27.9751C58.6799 28.6629 59.2359 29.221 59.9244 29.221H61.5203C61.8509 29.2203 62.1677 29.0883 62.401 28.8541C62.6344 28.62 62.7652 28.3028 62.7649 27.9722L62.6644 15.7529C62.6644 15.7529 69.2484 27.6493 69.5299 28.1183C69.9098 28.752 70.5535 29.221 71.4844 29.221H73.7703C74.4595 29.221 75.0148 28.6629 75.0148 27.9751L75.0134 12.586H102.635C102.747 12.5863 102.857 12.5646 102.96 12.5221C103.064 12.4796 103.157 12.4171 103.236 12.3383C103.315 12.2596 103.378 12.1659 103.421 12.0629C103.464 11.9598 103.486 11.8494 103.486 11.7378V10.4797C103.485 10.2543 103.395 10.0384 103.235 9.87933C103.076 9.72028 102.859 9.63115 102.634 9.63152Z" fill="#2D2D2D"/>
<path fill-rule="evenodd" clip-rule="evenodd" d="M97.7347 17.1999C99.0505 17.1999 100.035 17.6775 100.39 18.5022C100.56 18.8992 100.89 18.9755 101.342 18.9755H103.152C103.453 18.9755 103.793 18.7182 103.793 18.3269C103.793 16.2227 101.286 14.3445 97.7333 14.3445C94.0582 14.3445 91.6454 16.0958 91.6454 18.8835C91.6454 21.0176 93.3297 22.2871 95.4025 22.8288C96.3477 23.0769 97.9614 23.4746 98.7462 23.6806C99.593 23.903 100.35 24.161 100.35 24.8873C100.35 26.0314 99.1418 26.4213 97.826 26.4213C96.5772 26.4213 95.3341 25.8631 94.9777 24.9736C94.7703 24.4568 94.4096 24.382 93.8615 24.382H92.0211C91.6996 24.382 91.3304 24.6578 91.3304 25.0769V25.3136C91.3304 27.35 94.0618 29.482 97.8288 29.482C100.5 29.482 104.223 28.3721 104.223 24.789C104.223 22.7133 102.835 21.2764 100.576 20.7033C99.692 20.4795 97.5687 19.9392 97.1068 19.8194C96.2828 19.6063 95.5158 19.3376 95.5158 18.6319C95.5158 17.5635 96.5031 17.1999 97.7347 17.1999ZM30.7416 5.60434C30.9025 5.60434 31.0568 5.54043 31.1705 5.42667C31.2843 5.31292 31.3482 5.15863 31.3482 4.99776C31.3482 4.83688 31.2843 4.6826 31.1705 4.56884C31.0568 4.45508 30.9025 4.39118 30.7416 4.39118C30.5808 4.39118 30.4265 4.45508 30.3127 4.56884C30.199 4.6826 30.1351 4.83688 30.1351 4.99776C30.1351 5.15863 30.199 5.31292 30.3127 5.42667C30.4265 5.54043 30.5808 5.60434 30.7416 5.60434ZM22.5959 4.53017C22.7313 4.53017 22.8611 4.4764 22.9568 4.38069C23.0525 4.28498 23.1063 4.15517 23.1063 4.01981C23.1063 3.88446 23.0525 3.75465 22.9568 3.65894C22.8611 3.56323 22.7313 3.50946 22.5959 3.50946C22.4606 3.50946 22.3308 3.56323 22.2351 3.65894C22.1394 3.75465 22.0856 3.88446 22.0856 4.01981C22.0856 4.15517 22.1394 4.28498 22.2351 4.38069C22.3308 4.4764 22.4606 4.53017 22.5959 4.53017ZM16.4895 17.0096L16.2408 16.743C16.9336 16.0994 17.667 15.073 17.7861 14.4707C17.8966 13.9104 18.702 13.9995 18.5488 14.609C18.3542 15.388 17.4005 16.3289 16.4895 17.0096ZM11.3211 4.74258C10.046 5.29427 9.85921 6.60152 10.7538 7.3863C11.8322 8.33146 13.6106 7.50819 13.4395 6.06123C14.8858 6.13536 15.8188 4.64136 15.5886 3.59214C16.2322 3.04116 16.2964 1.86364 15.5244 1.40104C14.6969 0.905654 13.9178 1.09525 13.4217 2.0511C12.0966 1.95487 10.8272 2.99696 11.3211 4.74258L10.7074 4.47457C9.89841 2.78242 11.3154 1.05391 13.0532 1.45236C13.1791 1.17975 13.3624 0.93754 13.5905 0.742293C13.8186 0.547045 14.0862 0.403362 14.375 0.321066C14.6638 0.23877 14.967 0.219804 15.2637 0.265461C15.5605 0.311119 15.8439 0.420321 16.0946 0.585609C17.2101 1.26133 17.4461 3.00481 16.26 3.85017C16.8195 5.47746 15.704 6.80681 14.0069 6.65498C13.808 8.74772 11.8336 9.01787 10.5584 8.02425C9.83854 7.46328 9.54416 6.68563 9.40517 6.09901C9.25904 5.47817 9.25904 4.9222 8.64605 4.28283C8.18488 3.80028 7.35876 3.81667 7.35876 3.81667C7.35876 2.2963 5.93676 0.904941 4.1712 1.57852C3.54537 1.03966 2.772 0.986196 2.21817 1.65265C1.89599 2.03969 1.71851 3.05684 2.71141 3.523C2.66009 4.90866 3.71644 5.79323 5.26104 5.67063C5.32163 6.40693 6.13777 7.09121 6.86124 7.18886L6.85483 7.5588C6.08288 7.48467 5.66519 7.7541 5.15056 8.39204C3.3351 8.30651 2.06349 9.11409 2.11624 10.4164C0.840357 10.6587 0.601575 11.9945 1.32505 12.7058C2.04853 13.4172 3.10915 13.1385 3.47053 12.2888C4.75782 12.534 5.89471 11.6117 5.94674 10.5475C7.14921 10.5475 7.67524 10.0721 7.87197 8.96655L8.32601 9.00362C8.46001 10.194 7.90903 11.3237 6.4742 11.189C6.43713 12.6103 5.0579 13.4051 3.77132 12.914C3.17045 14.0423 1.79406 14.4935 0.638639 13.3922C-0.47758 12.3288 -0.0698674 10.5076 1.3892 10.0664C1.4227 8.67288 2.45196 7.34924 4.45132 7.85959C4.45132 7.85959 4.70863 7.23733 5.33446 7.20026C4.91748 7.02919 4.60172 6.79897 4.51547 6.36987C3.00722 6.69134 1.72635 5.30283 2.0692 3.90506C0.708492 3.18871 0.686396 1.84439 1.3614 1.04536C2.06492 0.213538 3.23674 0.0296393 4.28524 0.926324C6.06078 -0.0573205 8.06798 1.14728 7.94538 3.17017C9.18705 3.08749 9.94118 4.17306 9.8029 5.30354C10.0075 4.8053 10.247 4.57436 10.706 4.47457L11.3211 4.74258Z" fill="#2D2D2D"/>
<path fill-rule="evenodd" clip-rule="evenodd" d="M14.3718 2.31487L14.6719 2.52941C14.0896 3.75825 13.0589 5.06336 12.1764 5.78113L11.8393 5.52738C12.4651 4.50952 13.808 2.8295 14.3718 2.31487ZM5.68441 9.06422L5.88684 9.3643C5.15124 10.1184 3.78983 11.1242 3.06706 11.4734L2.7848 11.1669C3.48404 10.4128 4.8198 9.4256 5.68441 9.06422ZM7.44356 5.41263L7.08859 5.8517C6.12562 5.22017 4.22534 3.52232 3.79695 2.91004L4.09632 2.60425C5.01653 3.07042 6.81203 4.67133 7.44356 5.41263ZM5.65732 21.5244C5.76709 22.0754 5.67514 22.6855 6.17195 23.2814C6.3473 23.4903 7.31169 24.7597 8.01094 25.4155C7.06079 25.7897 5.16051 26.5624 3.79268 26.7341C3.51897 26.7691 3.21104 26.9608 2.95302 27.1083C2.78195 27.4006 2.60518 27.9231 2.53105 28.5132C2.4783 28.9352 2.48543 29.4042 2.48543 29.8832C2.48543 30.3052 2.70853 31.6317 3.1804 32.5227C3.65297 33.4136 4.1063 33.8121 4.66441 34.0723C4.77489 34.0238 5.01795 33.9874 5.39715 33.9789C6.42998 33.9554 7.23828 34.5263 7.59467 35.016C7.73081 35.2042 8.00452 35.2412 8.36448 35.2412C9.19772 35.2412 10.1144 34.9668 10.9847 34.6354C11.1707 34.4821 11.6953 34.1328 12.2107 33.728C12.7253 33.3245 15.5942 30.8911 16.8637 30.2767C17.5323 30.6388 18.63 31.1049 19.7633 31.1049C19.8289 31.1049 20.047 31.1078 20.2787 31.0565C20.6329 30.9759 21.087 30.8184 21.6579 30.7058C22.6808 30.5069 23.8804 30.3316 24.2303 30.3366C25.1712 30.3515 27.929 30.4228 28.5826 30.4228C29.2683 30.4228 30.2462 30.3629 30.6197 30.3266C31.1971 30.1355 32.4837 29.7792 33.7161 29.2104C34.9456 28.6658 37.5345 26.8689 37.9579 26.4583C38.1639 26.2744 38.3463 26.0727 38.481 25.8931C38.5317 25.8232 38.5502 25.7954 38.5502 25.7398L38.5359 23.9243C38.5359 23.9243 39.1546 23.2379 39.3913 22.9999C39.4141 22.9778 39.4155 22.9457 39.4119 22.9236C39.3057 22.5715 39.1995 21.4759 39.2601 20.3647L38.6336 20.0725C38.6053 21.2397 38.259 22.377 37.6321 23.362C36.7005 23.5095 34.9228 24.0605 34.2827 24.7889L34.6349 24.8895C35.2357 24.558 35.8794 24.3256 36.615 24.3256C37.265 24.3256 37.5516 24.4967 37.5516 24.6792C37.5516 24.8075 37.429 25.1147 37.3819 25.2123C37.3256 25.3235 37.2886 25.4654 37.1795 25.5837C36.2912 26.5585 35.2502 27.3823 34.0974 28.0229C33.2806 28.4797 32.51 28.787 31.3054 29.1284C30.9448 29.2303 30.4501 29.3764 30.1286 29.4876C29.6746 29.4734 27.3024 29.4042 25.9168 29.4042C24.5319 29.4042 21.675 29.6059 20.7669 29.8355C20.3549 29.9395 20.2523 30.1056 19.7733 30.1056C18.8788 30.1056 17.7048 29.6516 16.9842 29.3023C16.8801 29.3329 16.6192 29.4484 16.3591 29.5781C15.8473 29.8326 14.7097 31.4114 14.0482 30.9339C13.7104 31.626 12.252 32.2817 11.7531 32.9995C11.8079 32.6239 12.3967 30.1862 12.4523 29.6986C12.4623 29.6124 12.4694 29.5425 12.4145 29.4506C11.8821 28.561 10.3938 27.9958 9.55483 27.8318C9.3082 27.7834 9.18703 27.7499 9.02166 27.7121L7.69802 27.3122L6.4699 27.7121L7.88691 27.9837L6.08856 29.1754C6.40075 29.0557 8.33882 28.5182 8.48209 28.4755C8.64032 28.4284 8.85202 28.3821 9.08296 28.4626C9.34669 28.5546 10.0944 28.7257 10.5392 28.8803C10.8008 28.9709 11.2292 29.4513 11.3396 29.7072C11.3845 29.8141 11.4017 30.0386 11.4309 30.5354C11.4487 30.8483 11.3689 31.2831 11.2933 31.621C11.0952 32.5048 10.6931 33.1955 10.5663 33.4421C10.3909 33.7821 10.1486 33.8919 9.90979 34.0045C9.51776 34.1884 9.03877 34.3039 8.50632 34.311C8.14066 34.3153 7.89618 34.2961 7.74008 34.0844C7.24897 33.4215 6.03581 32.7785 4.79699 33.018C4.03716 32.5583 3.28375 31.0743 3.28375 29.8925C3.28375 29.184 3.64157 28.067 3.83402 27.5061C5.07141 27.3407 7.5462 26.3977 8.75009 25.851C9.00242 25.8382 9.69453 25.5937 10.356 25.5937C11.9747 25.5937 13.5806 27.0093 14.5557 27.9658C14.7154 27.7028 15.0155 27.3044 15.843 27.3044C16.9892 27.3044 17.6449 28.3457 17.9735 29.4178L18.5708 28.9837C18.4518 28.3174 18.136 27.702 17.6642 27.2167C17.2686 26.8211 16.5152 26.4925 15.9257 26.4925C15.5714 26.4925 15.2029 26.5716 14.9706 26.5716C14.1516 26.5716 13.818 26.2067 13.2135 25.7904C12.5606 25.3392 11.3461 24.6849 10.4793 24.6849C9.9212 24.6849 9.6703 24.9037 9.20984 24.9051C8.53269 24.9094 8.28108 24.6279 7.95676 24.2244C7.81492 24.0477 7.12922 23.4389 6.94603 23.1945C6.84054 23.054 6.65379 22.4788 6.58608 22.1909L5.65732 21.5244Z" fill="#2D2D2D"/>
<path fill-rule="evenodd" clip-rule="evenodd" d="M6.58822 22.1909C6.78495 22.4012 6.97455 22.6336 7.22046 22.8217C7.45782 23.0014 7.7579 23.1575 8.03945 23.3171C8.43718 23.5424 8.88838 23.8004 9.336 23.9422C9.72804 24.0606 10.237 24.109 10.7145 24.109C11.3952 24.109 12.1985 23.9686 12.8636 24.2787C13.3098 24.4875 13.3397 24.958 13.694 25.0955C14.2457 25.3101 15.7789 25.36 16.6285 25.36C18.3114 25.36 20.1318 25.1468 21.2074 24.8895L20.6828 24.3115C19.9387 24.4298 17.7547 24.6678 16.7525 24.6678C15.3405 24.6678 14.0069 24.4426 14.0069 23.8574C14.0069 23.454 14.4417 22.8702 15.2692 22.8702C16.1581 22.8702 17.5017 23.4076 17.7497 23.4811C17.9985 23.5552 18.0997 23.5352 18.2558 23.4632L18.7761 23.1945C18.0854 22.8731 15.6812 22.0462 14.8437 22.0462C14.4474 22.0462 14.2328 22.1032 13.9755 22.4347C13.6541 22.8481 12.7959 23.2252 11.4252 23.2252C10.6739 23.2252 9.59902 23.0912 9.36309 22.9942C8.95039 22.8246 8.14209 22.3556 7.62532 21.9821C6.95887 21.5017 6.37866 20.9685 5.9795 20.3462C5.86425 20.1679 5.80355 19.9598 5.80487 19.7475C5.8063 19.5857 5.85191 19.4353 5.86831 19.3163C5.98734 19.4816 6.11636 19.6014 6.28101 19.756C7.00449 20.4603 8.07224 20.9892 9.16992 21.1994C9.48284 21.2593 9.76082 21.3063 10.0702 21.3063C10.5385 21.3063 10.9711 21.0555 11.2463 20.8095L10.815 20.3085C10.676 20.3505 10.3881 20.3505 10.1985 20.3505C8.60469 20.3505 6.5818 19.3077 6.11636 18.1024C6.07003 17.9841 6.01443 17.9185 6.06076 17.8087C6.10709 17.6975 6.16483 17.463 6.19833 17.247C6.2917 17.354 6.48415 17.5158 6.72864 17.6733C7.32096 18.0532 8.45073 18.5792 8.67169 18.7175C9.2412 18.5536 9.66959 18.3625 10.0082 18.1872C10.4122 17.9751 10.8612 17.8629 11.3175 17.86C12.4822 17.86 13.8208 18.5244 15.0782 19.1438L15.9364 18.8052C14.8209 18.0211 12.3931 16.9234 11.0438 16.9234C10.2477 16.9234 9.49923 17.5058 8.96607 17.5058C8.31173 17.5058 6.43711 16.592 6.43711 15.83C6.43711 15.2441 7.65027 14.912 9.60116 14.6717C9.26172 15.1735 8.94238 15.6885 8.64389 16.2156L9.1407 16.4915C12.1964 12.0665 15.3747 9.19328 18.0484 7.44268C19.0192 6.80616 19.2409 6.4348 19.5801 5.74054C20.4084 4.04768 21.1896 2.74614 22.5482 2.74614C23.1826 2.74614 23.7008 3.10181 24.0564 3.54374L25.0401 3.83741L24.0443 4.5117L25.0622 4.91585C23.7343 5.28864 21.9195 6.5802 21.1853 8.4755C19.7697 8.55106 19.0869 9.69651 18.6243 10.6566C18.3121 11.3038 17.816 11.5626 17.0925 12.0523L11.3061 16.0859L12.1023 16.1957L17.4482 12.6161C18.5024 11.9047 19.0042 11.3801 19.2565 10.8747C19.7526 9.88325 20.2865 9.14623 21.335 9.14623C21.8504 9.14623 22.4021 9.36719 22.8433 9.78346L23.7806 10.09L22.757 10.7158L23.6152 11.2425C21.1632 12.0109 19.6429 13.7679 18.7597 17.1273L19.4105 17.2748C19.7362 16.1622 20.057 15.1422 20.6315 14.2419C22.0528 14.2255 23.4912 14.1735 24.9032 14.1735C28.671 14.1735 31.7987 14.3325 33.4866 14.8293L32.8893 13.7922C31.0831 13.4857 28.4629 13.3267 24.9032 13.3267C23.7093 13.3267 22.5004 13.3709 21.2994 13.3837C22.0742 12.5633 23.1904 11.8734 24.9089 11.3402L23.6893 10.6687L25.0436 9.91747L23.1982 9.23106C22.8753 8.94095 22.474 8.67508 21.9694 8.54821C22.5596 6.73203 24.5732 5.67069 26.5027 4.93937L25.1513 4.38839L26.5148 3.6421L24.4157 2.97208C23.8675 2.32844 23.3394 2.03477 22.5296 2.03477C20.583 2.03477 19.7648 3.7255 18.9928 5.22378C18.5865 6.01283 18.3292 6.34499 17.6385 6.79761C16.1417 7.77697 14.2328 9.27454 12.411 11.1926C11.4587 10.5062 9.5142 8.49974 8.98531 7.4049C8.77718 7.66221 8.57119 8.22318 8.57119 8.22318C8.77005 8.43345 11.0617 10.7479 11.9127 11.7287L11.7203 11.9439C10.8129 12.1243 8.45429 12.3509 7.65169 12.2419L7.20121 13.0416C7.80067 12.9824 10.1436 12.7066 11.1158 12.6496C10.8179 13.0105 10.5293 13.3792 10.2505 13.7551C7.23685 14.0972 5.22466 14.7152 5.22466 15.8286C5.22466 16.0118 5.29808 16.2199 5.29808 16.4166C5.29808 16.8828 5.12416 17.0539 4.79272 17.2627C4.57674 17.3981 4.5632 17.4929 4.65515 17.6213C4.74781 17.7517 5.21255 18.4388 5.21255 18.5742C5.21255 18.7966 4.99087 19.0212 4.81196 19.22C4.65515 19.3954 4.66156 19.4417 4.78416 19.6627L5.65804 21.5195L6.58822 22.1909ZM43.8968 11.8541C43.7043 12.0565 43.5347 12.2725 43.3921 12.502L42.9067 11.8206C44.5276 9.66086 48.8079 8.64728 51.319 8.46909V7.31081C51.0004 7.40918 50.6568 7.51965 50.3389 7.59521C49.8885 7.70355 49.475 7.80406 49.1243 7.79479C48.7737 7.78624 48.4893 7.64582 48.3581 7.45836C48.021 6.97723 48.3339 6.25019 49.4373 5.57019L48.5669 4.84671C47.8955 5.71774 47.234 6.67857 46.5612 7.25236C45.9496 7.77412 45.3088 8.03429 44.7913 7.64796C44.5126 7.43983 44.4079 7.34502 44.3801 6.80188C44.4171 6.00427 44.9025 4.78541 45.3302 4.00063L44.3002 3.87946C44.117 5.08122 43.6245 6.1062 43.097 6.95156C42.4398 8.00649 41.5924 8.74636 40.7199 9.35223L40.1475 8.78841C40.8518 8.37286 41.7335 7.69714 42.3401 6.76553C43.0436 5.68352 43.6145 4.34562 43.6152 3.13032L46.5947 3.41259C46.1763 3.94433 45.4856 5.15749 45.2233 6.02851C45.0871 6.48327 45.0936 6.84465 45.2582 6.96796C45.574 7.20461 46.1271 6.82683 46.6638 6.25161C47.4208 5.43833 48.1621 4.21162 48.4893 3.77397L50.644 5.56164C49.686 6.06914 48.758 6.64863 48.9426 6.97438C49.1115 7.2709 49.7252 7.1818 50.3974 6.9758C50.9541 6.8039 51.4901 6.57082 51.9954 6.28084V9.19328C50.9569 9.17902 49.1978 9.3729 47.5035 9.88682C47.9062 10.4556 49.063 10.6645 49.7979 10.7657L49.4294 13.1293C47.5748 12.3502 46.1442 11.8969 43.8968 11.8541L44.6402 11.2154C46.2967 11.2497 47.9568 11.7308 48.8977 12.2041L49.0324 11.3095C48.1849 11.1976 47.1171 10.7158 46.6652 10.1698C45.9275 10.4471 45.229 10.7928 44.6402 11.2154L43.8968 11.8541Z" fill="#2D2D2D"/>
<path fill-rule="evenodd" clip-rule="evenodd" d="M35.0183 19.3631L35.7083 17.8734C34.897 16.9136 34.1548 15.8975 33.4872 14.8327L32.8899 13.7956C31.51 11.1747 32.0125 9.92232 31.2762 8.76903C30.6675 7.81604 27.7108 8.40908 27.2205 8.51172L28.0758 7.09542L26.3901 7.22942L27.8185 5.53228C27.9746 5.31132 28.048 5.1096 28.2134 4.52084C28.4657 3.6263 29.2341 2.09951 31.4843 2.09951C33.9819 2.09951 34.756 4.12025 35.8451 4.9984C37.3322 6.19952 38.7671 7.46373 40.1461 8.78757L40.7184 9.35138C41.4562 10.1055 42.211 10.881 42.9067 11.8197L43.3921 12.5012C46.3986 16.8905 50.1343 25.2807 51.7858 29.1233C51.9455 29.4947 52.0595 29.8724 52.1586 30.159C50.9119 29.4646 49.7006 28.7086 48.5291 27.8937L47.7878 27.372C47.3227 27.0369 46.8629 26.6944 46.4086 26.3449L45.6466 25.7461C45.1882 25.3794 44.7365 25.0044 44.2916 24.6213L45.7949 33.3765C45.9054 33.8918 46.3459 33.807 46.7015 33.353C47.0572 32.8989 47.1919 32.7749 47.0572 32.1754L45.6466 25.7461L46.4086 26.3449L47.7607 31.8076C47.8919 32.3002 48.1 32.4563 48.676 32.4812C49.2526 32.5062 49.3752 32.2852 49.2526 31.906L47.7885 27.372L48.5298 27.8937L49.9155 31.9659C50.2712 33.0087 49.9155 33.1313 49.2904 33.1313C48.6653 33.1313 48.1015 32.9837 47.7579 33.2054C47.415 33.4257 46.9845 34.028 46.4699 34.5561C46.0151 35.0209 45.3544 34.8997 45.2197 34.0272L43.5582 23.9756C42.4901 23.0203 41.4773 22.0051 40.5246 20.9348C40.1 20.752 39.6786 20.5617 39.2608 20.3639L38.6343 20.0717C38.4864 20.0006 38.3356 19.9357 38.1824 19.8771C37.7226 20.4295 37.2814 21.0453 36.7668 21.4865C36.4931 21.7217 36.3063 21.8557 35.9022 21.8557C35.7774 21.8557 35.6227 21.8543 35.4788 21.7724C35.3248 21.6861 35.1801 21.5122 35.019 21.267C34.8971 21.0802 34.7168 20.8422 34.5593 20.5777C34.2307 20.0267 33.8764 19.3346 33.5571 18.7751C33.1993 18.1457 32.8914 17.6767 32.8493 17.599C32.7852 17.4793 32.6105 17.3317 32.6105 17.3317C32.4352 17.6175 32.3062 18.1685 32.3062 18.4722L31.6811 18.2605C31.7637 17.8471 31.9298 17.3132 32.0211 17.0559C32.0211 16.8349 31.773 16.5405 31.5706 16.5405C31.2855 16.5405 30.9918 16.8534 30.8442 17.4515L30.2099 17.7273C30.284 16.7615 30.614 15.7044 31.5706 15.7044C32.3432 15.7044 32.8215 16.2932 33.1893 16.8449C33.5564 17.3951 34.7617 19.0417 35.0183 19.3631L35.4966 19.969C35.58 20.3475 35.7404 20.5663 35.8181 20.6875C35.9841 20.9448 36.168 20.927 36.4161 20.6961C36.5294 20.592 36.8936 20.2955 37.2465 19.9277C37.553 19.6076 37.8509 19.2192 37.9707 19.0224C38.3214 19.18 38.975 19.4929 39.501 19.7238C37.2436 16.9425 35.0825 13.5668 34.1451 11.2709C33.7574 10.3222 34.5151 10.0043 34.8807 10.9395C35.8744 13.4777 38.7797 17.9654 40.913 20.3183C43.3793 23.0397 47.9019 26.9771 50.8442 28.5588C50.418 27.7262 49.8542 26.5316 49.2041 25.1467C45.6252 23.1224 42.0079 19.4052 40.3221 16.2119L41.0634 16.2975C42.633 19.0723 46.3808 22.7738 48.5954 23.8501C46.5711 19.5542 43.9359 14.1092 41.8796 11.767C39.3285 8.86241 36.543 6.61571 35.2122 5.44674C33.9007 4.29417 33.3604 2.84794 31.4722 2.84794C29.9148 2.84794 29.0965 3.96914 28.7843 5.10104C28.7194 5.32201 28.6831 5.45958 28.527 5.68909L27.7914 6.57223L29.3816 6.37907L28.4614 7.66636C28.4614 7.66636 30.9547 7.10682 31.8279 8.29147C32.7673 9.56878 32.1608 11.0029 33.7032 13.7906C34.3818 15.0159 36.0226 17.2191 36.5715 17.7081L35.4959 19.969L35.0183 19.3631ZM10.5128 19.7488L10.1357 19.4929C10.4525 19.2387 10.8018 19.028 11.1743 18.8663C11.3747 18.7842 11.5885 18.7392 11.8051 18.7338C12.2278 18.7338 12.592 18.9105 12.9477 19.1001C13.5101 19.3995 14.1416 19.7516 14.6256 19.7516C14.8095 19.7516 14.9877 19.7081 15.1958 19.7081C15.6748 19.7081 16.1345 19.9227 16.3975 19.9227C16.5572 19.9227 16.6677 19.7794 16.7725 19.629C17.0362 19.2491 17.4004 18.9675 17.8659 18.773C18.3655 18.5641 18.9664 18.4807 19.62 18.4807C20.1347 18.4807 20.6286 18.5548 20.8859 18.6104C20.8859 18.6104 20.4932 19.0837 20.3948 19.1885C19.8752 19.1885 18.8852 19.1707 18.2494 19.428C17.8588 19.5855 17.719 19.8122 17.719 20.1365C17.719 20.6041 18.2422 20.788 18.8253 20.9648C19.1688 21.0688 19.5545 21.0945 19.8795 21.0945C20.2801 21.0945 21.0477 20.9441 21.8061 20.7773C22.7221 20.5756 23.5731 20.3347 23.8219 20.2427L24.1526 20.8372C23.1334 21.1822 22.0913 21.5093 21.124 21.7061C20.5773 21.8173 20.0563 21.8857 19.5915 21.8857C18.8153 21.8857 17.9728 21.5599 17.28 21.2299C16.6955 20.9512 16.1744 20.6761 15.7083 20.6761C15.1844 20.6761 14.6919 20.8571 14.2064 21.1344C13.9691 21.2706 13.2527 21.7638 12.6148 22.014C12.1251 22.2086 11.726 22.3162 11.2299 22.3162C10.7879 22.3162 10.5242 22.2535 10.2954 22.0753L11.0638 21.6049C11.1629 21.7025 11.3403 21.7203 11.4501 21.7203C11.5606 21.7203 11.6925 21.7061 11.994 21.5813C12.1665 21.5086 12.4174 21.3547 12.5642 21.2599C12.8678 21.0638 12.9683 20.9491 13.0881 20.855C13.3205 20.6711 13.406 20.4273 13.1095 20.1629C12.9643 20.0259 12.8063 19.9032 12.6376 19.7965C12.3717 19.6376 12.18 19.4822 11.6996 19.4822C11.1322 19.48 10.7323 19.6361 10.5128 19.7488Z" fill="#2D2D2D"/>
<path fill-rule="evenodd" clip-rule="evenodd" d="M21.2167 20.0539C21.2167 20.0539 20.7598 19.9271 20.6001 19.9149C20.8877 19.5335 21.2356 19.2015 21.6301 18.932C22.2538 18.51 22.9067 18.2791 23.8946 18.2192C24.1634 18.2028 24.7108 18.1508 25.0166 18.1636C25.2924 18.1765 25.7586 18.1943 26.1877 18.2734C26.4913 18.3304 26.7743 18.4152 27.0095 18.4516C27.1528 18.4737 27.651 18.4666 27.8242 18.4388C28.5235 18.329 29.3631 18.0588 29.8051 17.8179L29.9889 18.4901C29.0445 18.9719 27.9775 19.4367 27.001 19.4367C26.5034 19.4367 25.9753 19.3989 25.4827 19.3533C24.6146 19.2699 23.8633 19.1544 23.6045 19.1544C22.9017 19.1544 21.8903 19.4816 21.2167 20.0539ZM20.5196 23.7918L19.6315 23.3855C20.8632 22.7618 22.7449 22.1367 23.5169 22.0127C24.2895 21.8915 25.1727 21.7981 25.6809 21.627C25.914 22.2158 26.3744 22.8452 27.0366 22.8452C27.2782 22.8452 27.6753 22.6627 28.0744 22.486C28.5228 22.2885 28.9732 22.0725 29.2063 21.9678C29.4586 21.8566 30.2769 21.4973 30.9705 21.188C31.3174 21.0303 31.6622 20.8677 32.0047 20.7004L32.4709 20.9528C32.3312 21.565 32.0981 22.3184 31.8358 22.8573C31.7331 23.069 31.6305 23.2429 31.52 23.3684C31.3176 23.5965 30.9904 23.9001 30.5635 24.2023C30.0973 24.5338 29.5292 24.8731 28.9262 25.2188C28.4565 25.4903 27.9839 25.7648 27.5049 25.9843L27.2561 25.5331C27.9946 25.1154 28.7451 24.5865 29.4052 24.0976C29.7174 23.8666 30.0196 23.6328 30.2356 23.4347C30.396 23.2885 30.4965 23.1674 30.5763 23.049C30.7723 22.7611 31.0916 22.1973 31.1893 21.9271C30.9141 22.0618 29.8721 22.5537 29.4059 22.7974C28.8799 23.0747 28.0267 23.5088 27.5484 23.7355C27.172 23.9122 26.8363 24.0099 26.5954 24.0099C26.0615 24.0099 25.8192 23.6257 25.688 23.3933C25.3509 22.7917 24.9895 22.7361 24.0386 22.724C22.9352 22.7105 21.4213 23.1667 20.5196 23.7918ZM25.703 21.019C25.703 21.019 25.574 20.4944 25.5127 20.3034C25.5127 20.3034 25.6659 20.2535 25.8683 20.2535C26.1991 20.2535 27.0166 20.3455 27.3559 20.3455C28.6332 20.3455 29.1044 19.9434 29.4793 19.6049C29.7993 19.3169 30.1279 19.0817 30.9968 19.0817C31.7631 19.0817 32.6426 19.391 32.8943 19.5129L32.8394 20.2107C32.4256 19.9895 31.9649 19.8703 31.4958 19.8629C31.1793 19.8629 30.8942 19.8879 30.6932 19.9926C30.4672 20.1095 30.3297 20.2849 30.1173 20.4588C29.892 20.6441 29.5834 20.8237 29.1792 20.9727C28.7751 21.1217 28.2747 21.2236 27.5284 21.2236C26.5433 21.2222 26.0095 21.0575 25.703 21.019Z" fill="#2D2D2D"/>
<path fill-rule="evenodd" clip-rule="evenodd" d="M17.6135 26.2865L18.2023 26.0427C18.7419 26.2516 19.5216 26.4882 20.0641 26.4882C20.3905 26.4882 20.66 26.3713 20.8816 26.2723C21.0556 26.1946 23.0171 25.2323 23.9908 24.8788C24.3002 24.7676 24.6145 24.7048 24.767 24.7048C25.0001 24.7048 25.0136 24.8089 25.0792 24.9165C25.2631 25.2102 26.7115 27.2773 26.8583 27.4362C28.0865 27.0592 29.3445 26.5061 30.0701 25.8104C30.8264 25.0812 31.4544 24.2373 32.0609 23.5843C32.2947 23.332 32.5841 23.1039 32.7274 23.0277C33.3554 22.6934 35.3084 22.6656 36.1295 22.7019L35.6427 23.3912C34.1957 23.3912 33.386 23.5401 33.0218 23.8146C32.8678 23.93 32.6355 24.1638 32.4138 24.4525C31.9198 25.0969 31.3802 25.9786 31.1643 26.1511C31.5877 26.4448 32.051 26.7021 32.7858 26.7021C34.0118 26.7021 34.89 25.9351 35.3711 25.5017L35.7831 25.7469C35.4787 26.1425 35.1302 26.5474 34.6861 26.8496C34.1936 27.1839 33.5728 27.4006 33.2057 27.5025C32.4943 27.3678 30.9276 27.0513 30.5605 26.9779C29.2055 27.5303 26.9988 28.4227 26.2575 28.6458C26.0935 28.6868 25.9263 28.7133 25.7578 28.725C25.1719 28.757 24.3572 28.7528 23.6152 28.7442C23.0884 28.7371 22.5902 28.7399 22.34 28.6943L21.6864 28.0122C22.263 28.1219 22.4875 28.1554 23.0264 28.1554C24.3016 28.1554 25.122 27.9423 25.3929 27.8732C25.6202 27.8147 25.658 27.6836 25.5903 27.4776C25.4827 27.1504 25.2938 26.8396 25.0065 26.5075C24.8103 26.2938 24.5949 26.0986 24.3629 25.9244C24.1875 25.8047 24.0165 25.774 23.5353 25.9387C23.0891 26.0905 21.7049 26.8396 21.1083 27.1568C20.8132 27.3144 20.5837 27.36 20.0541 27.2345C19.4931 27.1027 18.1517 26.6123 17.6135 26.2865ZM21.4519 10.9238C21.5851 10.9238 21.713 10.8709 21.8072 10.7766C21.9014 10.6824 21.9544 10.5546 21.9544 10.4213C21.9544 10.288 21.9014 10.1602 21.8072 10.066C21.713 9.97173 21.5851 9.91879 21.4519 9.91879C21.3186 9.91879 21.1908 9.97173 21.0965 10.066C21.0023 10.1602 20.9494 10.288 20.9494 10.4213C20.9494 10.5546 21.0023 10.6824 21.0965 10.7766C21.1908 10.8709 21.3186 10.9238 21.4519 10.9238Z" fill="#2D2D2D"/>
</svg>
