<svg width="101" height="36" viewBox="0 0 101 36" fill="none" xmlns="http://www.w3.org/2000/svg">
<g clip-path="url(#clip0_1132_586)">
<path d="M5.30208 24.977V25.268C5.30208 27.7012 5.31146 30.1344 5.29456 32.5677C5.29456 33.1309 5.07396 33.635 4.7501 34.1063C4.32391 34.7258 3.69683 34.983 3.01625 35.1539C2.75319 35.2108 2.48462 35.2382 2.2155 35.2356C1.64474 35.2468 1.07399 35.2356 0.483521 35.2356V6.53546C0.550171 6.53546 0.62433 6.52607 0.69943 6.52607C2.1235 6.52607 3.54663 6.53077 4.9707 6.52044C5.19693 6.52044 5.24106 6.5946 5.23824 6.80206C5.22698 7.49016 5.23355 8.17919 5.23355 8.86729V9.19585C5.31334 9.10198 5.35089 9.06255 5.38281 9.01843C5.70479 8.57534 6.03993 8.15103 6.47738 7.80464C6.94675 7.43477 7.43114 7.09119 7.98406 6.8659C8.50694 6.65562 9.04671 6.4904 9.58649 6.32237C10.0884 6.17024 10.611 6.0974 11.1354 6.10646C11.4349 6.10646 11.74 6.02103 12.0347 6.05201C12.7857 6.12993 13.5442 6.16653 14.2877 6.36743C14.958 6.5486 15.6151 6.75325 16.2215 7.08274C16.7061 7.34659 17.1671 7.65155 17.5996 7.99426C18.0428 8.33798 18.4515 8.72406 18.8199 9.14704C19.3894 9.8073 19.8499 10.5542 20.1839 11.3596C20.4584 12.0319 20.6926 12.72 20.8852 13.4202C21.0237 13.9614 21.1179 14.513 21.1668 15.0695C21.2508 15.8155 21.2947 16.5653 21.2982 17.316C21.281 17.8997 21.2125 18.4808 21.0936 19.0526C20.975 19.7605 20.8113 20.46 20.6035 21.1469C20.331 22.0312 19.9191 22.8662 19.3832 23.6205C18.991 24.1743 18.5583 24.6983 18.0887 25.1882C17.5847 25.7109 16.9939 26.1422 16.3426 26.463C15.7759 26.7499 15.1925 27.0025 14.5956 27.2197C14.0921 27.3765 13.5746 27.4846 13.0504 27.5426C12.4623 27.6293 11.8688 27.6735 11.2743 27.6749C10.7721 27.6693 10.2708 27.5548 9.77236 27.4872C8.91146 27.3602 8.08181 27.0736 7.326 26.6423C6.96486 26.4385 6.6241 26.2006 6.3084 25.9317C5.95919 25.6473 5.64941 25.3121 5.30208 24.977ZM16.3576 16.7996C16.3248 16.3303 16.3313 15.8525 16.2478 15.3915C16.1467 14.8982 16.0109 14.4126 15.8413 13.9384C15.6437 13.354 15.3309 12.8152 14.9213 12.3538C14.3938 11.7539 13.7949 11.2451 13.0382 10.9231C12.4247 10.6605 11.7692 10.5095 11.1026 10.4772C10.6404 10.4647 10.1784 10.5072 9.72636 10.604C9.30553 10.6802 8.89567 10.8079 8.506 10.9841C7.81976 11.2899 7.21989 11.7607 6.75994 12.3547C6.45856 12.7501 6.19487 13.1728 5.97234 13.6173C5.5715 14.4321 5.40158 15.307 5.32367 16.1857C5.2763 16.8372 5.29991 17.4919 5.39407 18.1383C5.47833 18.6585 5.61483 19.169 5.80149 19.6619C6.10257 20.5456 6.63133 21.3344 7.33445 21.9486C7.75136 22.325 8.22701 22.6307 8.74256 22.8536C9.28968 23.0766 9.86719 23.2161 10.4558 23.2676C11.1126 23.325 11.7744 23.2516 12.4027 23.0517C13.4636 22.7418 14.3918 22.0891 15.0424 21.1958C15.6996 20.2936 16.0751 19.2657 16.2572 18.1711C16.3285 17.7234 16.3248 17.2606 16.3576 16.7996Z" fill="#2D2D2D"/>
<path d="M42.9014 18.2143H27.8074C27.8609 18.5823 27.8759 18.9306 27.9679 19.2573C28.0887 19.7072 28.2502 20.1452 28.4504 20.5659C28.6307 20.9264 28.8963 21.2446 29.1329 21.576C29.6023 22.2331 30.266 22.6593 30.9757 23.0057C31.5253 23.2827 32.1253 23.4455 32.7396 23.4844C33.0944 23.5023 33.453 23.5717 33.8041 23.5426C34.5053 23.4835 35.2 23.3812 35.8552 23.0733C36.4598 22.7916 37.0108 22.4462 37.4323 21.9327C37.7233 21.5788 37.9524 21.1732 38.219 20.7977C38.2698 20.7207 38.3492 20.667 38.4396 20.6485C39.8937 20.64 41.3497 20.6429 42.8038 20.6438C42.8424 20.6487 42.8807 20.6562 42.9183 20.6663C42.8564 20.9151 42.8047 21.1629 42.7306 21.4042C42.442 22.3306 42.0044 23.2038 41.4351 23.9895C41.0267 24.5637 40.5458 25.0827 40.0045 25.5337C39.4807 25.9874 38.9061 26.379 38.2922 26.7006C37.6904 26.9851 37.0666 27.2206 36.4269 27.4046C35.9186 27.5698 35.395 27.6837 34.8639 27.7444C34.1295 27.8277 33.3895 27.8506 32.6513 27.813C31.5645 27.7465 30.4944 27.5135 29.4784 27.122C28.7034 26.8207 27.9664 26.4294 27.2827 25.9561C26.6379 25.4969 26.048 24.9652 25.5244 24.3715C25.1501 23.943 24.812 23.4843 24.5134 23C24.2545 22.5993 24.033 22.1758 23.8516 21.7346C23.6187 21.161 23.4228 20.5731 23.2648 19.9745C23.1278 19.4507 23.064 18.9071 22.9832 18.3702C22.9447 18.128 22.9325 17.8811 22.9119 17.6361C22.8875 17.3357 22.8321 17.0325 22.8509 16.7349C22.8997 15.9895 22.9363 15.2376 23.0649 14.5035C23.2076 13.684 23.4075 12.8682 23.7877 12.1172C24.1135 11.4742 24.4054 10.803 24.8203 10.2191C25.292 9.5646 25.8265 8.95779 26.4162 8.40731C27.1988 7.68447 28.1034 7.10603 29.0879 6.6988C29.7223 6.43037 30.383 6.22871 31.0592 6.09707C31.9018 5.92893 32.762 5.86586 33.6201 5.90932C34.1157 5.93467 34.6067 6.04732 35.1024 6.10176C35.9008 6.20354 36.6793 6.42507 37.4117 6.75888C37.9993 7.01516 38.5382 7.38502 39.0948 7.71452C39.6515 8.04402 40.0871 8.53873 40.518 9.01374C40.8543 9.40275 41.1585 9.81841 41.4276 10.2566C41.8888 10.9848 42.2388 11.7777 42.4658 12.6091C42.5963 13.071 42.6789 13.5479 42.7869 14.0172C43.0432 15.1259 42.9972 16.2524 42.9906 17.376C42.9803 17.6445 42.9324 17.9102 42.9014 18.2143ZM27.937 14.5382H37.9815C37.9439 14.2707 37.9092 14.02 37.8716 13.7694C37.7716 13.0916 37.4984 12.4511 37.0784 11.9098C36.6615 11.3397 36.1065 10.8849 35.4657 10.588C35.1246 10.4387 34.7683 10.327 34.403 10.2548C33.9083 10.1609 33.4042 10.098 32.901 10.0482C32.7227 10.0313 32.5368 10.0895 32.3537 10.113C32.1468 10.1292 31.9409 10.1567 31.737 10.1956C31.1777 10.3313 30.6454 10.5608 30.1627 10.8743C29.6861 11.1762 29.2705 11.565 28.9377 12.0205C28.5689 12.5116 28.2928 13.0657 28.1228 13.6558C28.0487 13.9393 28.0008 14.2303 27.937 14.5382Z" fill="#2D2D2D"/>
<path d="M79.4316 16.8729C79.4222 16.6931 79.4222 16.5129 79.4316 16.3331C79.4917 15.7605 79.5752 15.1907 79.6316 14.618C79.7048 13.867 79.9357 13.1592 80.2117 12.4749C80.4981 11.8033 80.8332 11.1535 81.2143 10.5307C81.6602 9.76943 82.2628 9.12263 82.9218 8.54719C83.3967 8.14159 83.8985 7.76869 84.4238 7.43103C85.1115 6.99229 85.8581 6.65347 86.6411 6.4247C87.0776 6.28952 87.5301 6.20691 87.9769 6.11022C88.856 5.92588 89.7556 5.85865 90.6523 5.91026C91.1575 5.93781 91.6597 6.00498 92.1543 6.11116C92.7972 6.24238 93.433 6.40657 94.059 6.60306C94.6834 6.81671 95.2817 7.10012 95.8426 7.44792C96.6724 7.94919 97.4239 8.56976 98.0731 9.28973C98.5503 9.81279 98.9695 10.3859 99.3235 10.9992C99.7628 11.7573 100.106 12.5671 100.346 13.4099C100.457 13.7976 100.522 14.1984 100.617 14.5917C100.868 15.629 100.84 16.6861 100.813 17.7384C100.791 18.1977 100.725 18.6538 100.616 19.1005C100.476 19.7342 100.318 20.365 100.126 20.9836C99.8852 21.7131 99.5491 22.4075 99.1263 23.0488C98.6569 23.782 98.1331 24.4739 97.4751 25.0437C96.9816 25.4728 96.4601 25.8686 95.914 26.2284C95.1105 26.745 94.2335 27.1371 93.3127 27.3915C92.8218 27.5313 92.3083 27.5886 91.8107 27.6947C91.0447 27.858 90.2675 27.8543 89.4939 27.8233C89.0039 27.7955 88.5168 27.7296 88.037 27.6261C87.4583 27.5227 86.8874 27.3794 86.3285 27.1971C85.7892 26.9964 85.2661 26.7548 84.7636 26.4743C84.3153 26.2388 83.8865 25.9679 83.4813 25.6642C83.1002 25.356 82.7396 25.0233 82.4018 24.6682C81.78 24.0257 81.2468 23.303 80.8162 22.5194C80.4225 21.7994 80.1078 21.039 79.8775 20.2514C79.7386 19.7577 79.64 19.2535 79.5827 18.7438C79.4973 18.1252 79.4513 17.5009 79.3884 16.8794L79.4316 16.8729ZM95.7797 16.8823H95.8126C95.7778 16.458 95.7685 16.0299 95.7018 15.6112C95.6396 15.1333 95.5343 14.662 95.3873 14.2031C95.1694 13.5679 94.8436 12.975 94.4242 12.4505C94.095 12.0281 93.7031 11.6587 93.262 11.355C92.7805 11.0339 92.2679 10.7636 91.6971 10.6406C91.2246 10.5233 90.7433 10.4442 90.2581 10.404C89.8422 10.392 89.4267 10.4362 89.0227 10.5354C88.5357 10.6336 88.0613 10.7856 87.608 10.9889C86.9631 11.2986 86.3651 11.7032 85.9333 12.3031C85.6517 12.688 85.3391 13.0541 85.1269 13.4774C84.6536 14.4302 84.4071 15.4795 84.4069 16.5434C84.3985 17.2343 84.3947 17.9271 84.5552 18.6011C84.7037 19.2651 84.9425 19.9057 85.2649 20.5049C85.7222 21.3596 86.4037 22.0736 87.2363 22.5701C88.1093 23.0845 89.0584 23.3999 90.0928 23.3446C90.515 23.3258 90.9354 23.28 91.3517 23.2075C91.6982 23.1453 92.0369 23.0456 92.3618 22.9099C92.6969 22.7735 93.0138 22.596 93.3052 22.3814C93.6679 22.1139 93.9992 21.8062 94.2928 21.4643C94.6158 21.0736 94.8973 20.6505 95.1329 20.2016C95.3179 19.8325 95.4564 19.4418 95.545 19.0385C95.6509 18.5598 95.7305 18.0756 95.7835 17.5882C95.7969 17.353 95.7956 17.1173 95.7797 16.8823Z" fill="#2D2D2D"/>
<path d="M73.4274 19.4798H78.0648C78.0235 19.8478 78.0235 20.2073 77.9362 20.5434C77.7956 21.1137 77.6156 21.6736 77.3974 22.219C77.2075 22.6829 76.9656 23.1238 76.6764 23.5332C76.299 24.0883 75.871 24.6071 75.3978 25.0831C74.8823 25.5566 74.3291 25.9873 73.7438 26.3711C73.0632 26.8404 72.2944 27.1502 71.5058 27.3849C71.0102 27.5332 70.4882 27.5914 69.9794 27.6947C69.294 27.828 68.5941 27.8718 67.8973 27.8252C67.3547 27.7942 66.815 27.7013 66.2752 27.629C65.0548 27.4656 63.9396 26.9888 62.8723 26.4011C62.4796 26.1745 62.1057 25.9168 61.7542 25.6304C61.3601 25.3291 60.9869 25.0013 60.6371 24.6494C60.0157 24.0263 59.4919 23.313 59.0835 22.5335C58.7606 21.8905 58.4686 21.2286 58.2086 20.5621C58.0556 20.1669 57.9824 19.7389 57.8913 19.3221C57.7498 18.7215 57.6776 18.1067 57.6763 17.4896C57.6763 17.1498 57.6003 16.8072 57.6228 16.4702C57.659 15.9164 57.7264 15.3651 57.8247 14.8189C57.9201 14.2007 58.0613 13.5904 58.2471 12.9931C58.4721 12.3829 58.7393 11.7891 59.0469 11.216C59.2639 10.8178 59.5011 10.4308 59.7575 10.0567C59.8587 9.90251 59.9707 9.7557 60.0926 9.61735C60.562 9.07852 61.0361 8.54625 61.6322 8.14541C62.2114 7.75583 62.7793 7.34279 63.3904 7.01235C64.0525 6.65697 64.7613 6.39657 65.496 6.23883C66.0752 6.11304 66.6488 5.98161 67.244 5.96847C67.779 5.95627 68.3188 5.8746 68.8483 5.91684C69.5551 5.97786 70.2629 6.04263 70.9595 6.23038C71.7039 6.43033 72.4324 6.65845 73.112 7.01611C73.6893 7.32026 74.2545 7.65069 74.7341 8.10786C75.0374 8.39699 75.3791 8.65139 75.6504 8.96775C76.002 9.38508 76.3271 9.82402 76.6238 10.282C77.0697 10.9607 77.3532 11.7183 77.587 12.4908C77.6838 12.8527 77.7619 13.2193 77.8207 13.5892C77.8545 13.7694 77.8686 13.9543 77.8921 14.1365C77.9127 14.2923 77.8442 14.3383 77.6921 14.3364C76.9721 14.3308 76.253 14.3364 75.533 14.3364C74.829 14.3364 74.1249 14.3298 73.4209 14.3411C73.2425 14.3411 73.1711 14.266 73.1261 14.1186C72.9061 13.3629 72.525 12.6638 72.009 12.0693C71.3706 11.3428 70.5868 10.8997 69.6621 10.6612C69.1202 10.5057 68.556 10.4423 67.9931 10.4735C67.3109 10.5117 66.6403 10.6667 66.0105 10.9316C65.3142 11.2302 64.6898 11.6741 64.179 12.2336C63.6858 12.7631 63.311 13.3917 63.0797 14.0773C62.9154 14.5927 62.7418 15.1165 62.6789 15.6497C62.6056 16.274 62.4968 16.9067 62.6479 17.545C62.7512 17.9844 62.7662 18.4434 62.8685 18.8827C63.0045 19.4577 63.224 20.0096 63.52 20.5208C63.8201 21.0275 64.1944 21.4863 64.6305 21.882C65.1747 22.396 65.8305 22.777 66.5465 22.9953C67.259 23.215 67.9949 23.3455 68.7375 23.2666C69.3025 23.2199 69.8581 23.0934 70.3878 22.8911C71.0222 22.6457 71.5979 22.2696 72.0775 21.7872C72.7214 21.1492 73.1869 20.3537 73.4274 19.4798Z" fill="#2D2D2D"/>
<path d="M43.705 10.941V6.52889C44.1462 6.52889 44.5761 6.55236 45.0023 6.5242C45.804 6.47069 46.5493 6.24258 47.1088 5.62958C47.4468 5.25408 47.704 4.81475 47.7659 4.30877C47.8439 3.71267 47.888 3.11 47.9068 2.50921C47.9293 1.75821 47.9114 1.00722 47.9114 0.244965H52.4033V6.52889H52.7084C53.9363 6.52889 55.1641 6.52889 56.392 6.52889C56.5722 6.52889 56.6351 6.57113 56.6342 6.76264C56.6254 8.07687 56.6254 9.39111 56.6342 10.7053C56.6342 10.9053 56.5704 10.9532 56.3798 10.9513C55.1594 10.9438 53.9391 10.9513 52.7187 10.9513H52.4183C52.4127 11.0564 52.4042 11.139 52.4042 11.2217C52.4042 14.4594 52.3845 17.699 52.4164 20.9367C52.4249 21.7909 52.8501 22.6264 53.8565 22.8752C54.4252 23.0242 55.019 23.051 55.5988 22.954C55.9461 22.893 56.3038 22.8958 56.6774 22.8686V26.9784C56.099 27.2019 55.4872 27.327 54.8675 27.3483C54.2104 27.3699 53.5589 27.4421 52.9112 27.398C52.3902 27.3652 51.8786 27.2037 51.3613 27.0929C50.7417 26.9587 50.1954 26.6545 49.6885 26.2931C49.1515 25.9111 48.6793 25.4483 48.3742 24.854C48.1431 24.4057 47.9365 23.945 47.7556 23.4741C47.663 23.206 47.6032 22.9276 47.5773 22.6452C47.2909 20.2514 47.4834 17.8463 47.4411 15.4469C47.4139 14.0313 47.4317 12.6157 47.4411 11.1991C47.4411 10.9926 47.3867 10.9344 47.1792 10.9363C46.1231 10.9466 45.0671 10.9363 44.011 10.9363L43.705 10.941Z" fill="#2D2D2D"/>
</g>
<defs>
<clipPath id="clip0_1132_586">
<rect width="100.344" height="35" fill="white" transform="translate(0.486328 0.241211)"/>
</clipPath>
</defs>
</svg>
