<svg width="168" height="36" viewBox="0 0 168 36" fill="none" xmlns="http://www.w3.org/2000/svg">
<g clip-path="url(#clip0_1132_568)">
<path d="M66.0152 4.69749L62.9012 6.58173C62.0675 5.2019 61.0712 3.98465 59.3995 3.90128C58.3719 3.82628 57.3405 3.98298 56.3814 4.35984C54.3596 5.24359 53.3925 7.56553 53.8802 9.77908C54.1058 10.8286 54.6837 11.7694 55.5178 12.4451C56.352 13.1207 57.3923 13.4907 58.4658 13.4934C60.375 13.56 61.9424 12.5637 62.4635 10.8629H57.928V7.44047C58.0885 7.39252 58.2532 7.36041 58.4199 7.34459C60.8502 7.34459 63.2806 7.34459 65.7109 7.34459C66.207 7.34459 66.5446 7.3696 66.5863 8.03659C66.9156 12.4387 64.181 16.1821 60.0665 16.8991C55.7353 17.6537 51.675 15.1775 50.5078 11.063C49.3739 7.06946 51.1123 2.93416 54.6765 1.15831C56.4511 0.283174 58.473 0.0458084 60.4021 0.486137C62.3312 0.926466 64.0498 2.01762 65.269 3.57613C65.5191 3.88044 65.7192 4.24311 66.0152 4.69749Z" fill="#2D2D2D"/>
<path d="M166.872 22.802L163.749 24.707C162.949 23.3189 161.957 22.1475 160.343 22.0266C159.319 21.9289 158.286 22.0628 157.321 22.4184C155.316 23.2522 154.274 25.5366 154.699 27.6793C154.889 28.7505 155.441 29.7239 156.263 30.4366C157.085 31.1492 158.127 31.5577 159.214 31.5936C160.103 31.6827 160.996 31.4672 161.746 30.9825C162.497 30.4978 163.06 29.7726 163.345 28.9257H158.797V25.4449H161.894C163.491 25.4449 165.087 25.4449 166.684 25.4449C167.151 25.4449 167.464 25.4991 167.484 26.1035C167.68 31.4102 164.387 34.5909 160.552 35.0161C157.163 35.3913 154.328 34.2991 152.452 31.4227C150.522 28.4671 150.501 25.2906 152.298 22.2517C154.045 19.3086 156.825 18.1456 160.177 18.4165C163.086 18.6625 165.3 20.1007 166.872 22.802Z" fill="#2D2D2D"/>
<path d="M148.721 34.9035C147.633 34.9035 146.637 34.9619 145.636 34.8744C145.257 34.7661 144.934 34.5151 144.736 34.174C142.993 31.4602 141.284 28.7214 139.563 25.9951C139.379 25.7075 139.183 25.4324 138.817 24.8904V34.841H135.256V18.5833C136.428 18.5833 137.566 18.5374 138.696 18.6166C138.983 18.6375 139.317 19.0335 139.504 19.3045C141.172 21.9057 142.802 24.5236 144.444 27.1373C144.628 27.425 144.824 27.6959 145.178 28.217V18.6708H148.721V34.9035Z" fill="#2D2D2D"/>
<path d="M13.8403 34.8535H10.3512V28.538H5.06533V34.8869C3.73136 34.8869 2.52662 34.9286 1.31354 34.8452C1.13429 34.8452 0.850824 34.2532 0.850824 33.9323C0.821643 29.1425 0.829986 24.3444 0.829986 19.5587C0.834155 19.4893 0.834155 19.4197 0.829986 19.3503C0.763287 18.775 1.0009 18.5166 1.59702 18.5541C2.49744 18.5874 3.40204 18.5916 4.30247 18.5541C4.91527 18.5333 5.07367 18.8042 5.06533 19.367C5.04032 20.8218 5.06533 22.285 5.06533 23.7399V24.9196H10.3137V18.6667H13.8362L13.8403 34.8535Z" fill="#2D2D2D"/>
<path d="M16.0122 26.7288C16.0122 24.5176 16.8906 22.397 18.4541 20.8335C20.0177 19.2699 22.1383 18.3915 24.3495 18.3915C25.4482 18.397 26.535 18.619 27.5478 19.0449C28.5606 19.4707 29.4795 20.0921 30.2519 20.8734C31.0243 21.6548 31.6351 22.5807 32.0493 23.5983C32.4636 24.6159 32.6731 25.7052 32.666 26.8039C32.6455 29.0029 31.7651 31.1067 30.2131 32.6648C28.6612 34.223 26.561 35.1118 24.362 35.1412C22.1418 35.1247 20.0181 34.2311 18.454 32.6552C16.8899 31.0794 16.0121 28.9491 16.0122 26.7288ZM29.0684 26.7288C29.0685 25.4675 28.5706 24.2572 27.683 23.361C26.7954 22.4648 25.5899 21.9553 24.3287 21.9432C23.0659 21.9608 21.8611 22.4759 20.976 23.3766C20.0909 24.2774 19.5969 25.491 19.6014 26.7538C19.6024 28.0119 20.0992 29.2189 20.9841 30.1131C21.869 31.0074 23.0707 31.5169 24.3287 31.5311C25.5932 31.5179 26.8012 31.0052 27.6891 30.1047C28.5771 29.2043 29.0729 27.9893 29.0684 26.7247V26.7288Z" fill="#2D2D2D"/>
<path d="M76.4077 16.995C75.311 16.9863 74.2269 16.7613 73.2173 16.333C72.2077 15.9046 71.2926 15.2812 70.5243 14.4986C69.756 13.716 69.1497 12.7895 68.7401 11.7722C68.3304 10.7549 68.1255 9.66681 68.1371 8.57018C68.1511 6.37267 69.0266 4.26834 70.5754 2.70937C72.1242 1.1504 74.2228 0.261219 76.4202 0.23288C78.635 0.253717 80.7523 1.14679 82.3131 2.71844C83.8738 4.29008 84.7521 6.41361 84.7575 8.62854C84.7586 10.8449 83.8797 12.9711 82.3141 14.5399C80.7484 16.1086 78.624 16.9917 76.4077 16.995ZM76.4493 13.4267C77.7118 13.407 78.916 12.8922 79.8026 11.9932C80.6891 11.0941 81.1871 9.88283 81.1891 8.6202C81.1837 7.35879 80.6822 6.15016 79.793 5.25547C78.9037 4.36078 77.6982 3.85189 76.4368 3.83876C75.174 3.85627 73.9687 4.36968 73.0812 5.26815C72.1936 6.16663 71.695 7.37811 71.6929 8.64105C71.6993 9.9011 72.1999 11.1083 73.087 12.0032C73.9741 12.8981 75.1769 13.4092 76.4368 13.4267H76.4493Z" fill="#2D2D2D"/>
<path d="M102.933 8.65355C102.933 9.74842 102.717 10.8326 102.298 11.8441C101.879 12.8556 101.265 13.7747 100.491 14.5489C99.7167 15.3231 98.7976 15.9372 97.786 16.3562C96.7745 16.7752 95.6904 16.9909 94.5955 16.9909C92.3993 16.9732 90.2997 16.0859 88.7565 14.5231C87.2133 12.9604 86.3524 10.8498 86.3624 8.65355C86.3525 7.55763 86.5588 6.4705 86.9694 5.45437C87.3801 4.43824 87.987 3.51305 88.7556 2.73172C89.5242 1.95039 90.4392 1.32825 91.4484 0.900908C92.4577 0.473561 93.5412 0.249386 94.6372 0.241211C96.8511 0.262127 98.9666 1.15885 100.521 2.73528C102.076 4.31172 102.943 6.43958 102.933 8.65355ZM99.3644 8.6077C99.3622 7.34645 98.8614 6.13724 97.9711 5.24385C97.0808 4.35045 95.8734 3.84536 94.6122 3.83876C93.9869 3.84418 93.3688 3.97327 92.7937 4.2186C92.2185 4.46393 91.6976 4.82065 91.2609 5.2682C90.8242 5.71574 90.4803 6.24528 90.2492 6.8263C90.0181 7.40732 89.9042 8.02833 89.9141 8.65355C89.9113 9.27868 90.032 9.8982 90.269 10.4766C90.5061 11.0551 90.855 11.581 91.2957 12.0244C91.7363 12.4678 92.2602 12.8199 92.8371 13.0605C93.4141 13.3011 94.0329 13.4256 94.658 13.4267C95.9196 13.4069 97.1222 12.8893 98.0038 11.9866C98.8854 11.0839 99.3745 9.8694 99.3644 8.6077Z" fill="#2D2D2D"/>
<path d="M105.2 16.9367V0.474661C107.806 0.528854 110.378 0.170355 112.879 0.962399C116.36 2.06709 118.386 5.05601 118.298 8.84531C118.202 12.5679 115.914 15.6902 112.32 16.4114C110.024 16.8658 107.635 16.7741 105.2 16.9367ZM108.802 13.3683C110.932 13.4475 112.808 13.0682 113.959 11.1964C114.486 10.4067 114.763 9.47694 114.755 8.5277C114.747 7.57845 114.453 6.65358 113.913 5.87307C112.733 4.05554 110.845 3.82626 108.802 3.90547V13.3683Z" fill="#2D2D2D"/>
<path d="M79.1131 23.9983C80.3928 22.4018 81.6476 20.7843 82.9774 19.2294C83.3195 18.8754 83.7758 18.6539 84.2655 18.6041C85.3577 18.5166 86.4666 18.5749 87.8172 18.5749C87.4462 19.0752 87.2211 19.4087 86.9835 19.7046C85.7329 21.247 84.524 22.8103 83.2317 24.2902C82.7648 24.8404 82.7773 25.2364 83.1233 25.8409C84.649 28.4838 86.1247 31.1643 87.6129 33.8322C87.7755 34.1198 87.9089 34.4283 88.1382 34.8827C86.8292 34.8827 85.6578 34.9285 84.4948 34.8493C84.2197 34.8493 83.8862 34.4325 83.7194 34.1615C82.5314 32.048 81.3808 29.9137 80.1719 27.7043C79.3382 28.5005 78.7462 29.2258 78.8296 30.4139C78.9338 31.8563 78.8546 33.332 78.8546 34.8785C77.7332 34.8785 76.7286 34.9285 75.7448 34.8368C75.553 34.8368 75.2821 34.2407 75.2821 33.9197C75.2487 29.7511 75.2821 25.5824 75.2821 21.4138C75.248 20.6857 75.2578 19.9563 75.3113 19.2294C75.3446 18.9835 75.7281 18.775 75.9616 18.5624C75.9991 18.5291 76.095 18.5624 76.1658 18.5624C78.8755 18.4791 78.8755 18.4791 78.8755 21.1595V23.9525L79.1131 23.9983Z" fill="#2D2D2D"/>
<path d="M99.4853 34.8494H89.6931C89.6681 34.4783 89.6306 34.1449 89.6306 33.8114C89.6306 29.1216 89.6306 24.4361 89.6097 19.7463C89.6097 18.8667 89.7848 18.5291 90.7436 18.5541C93.3115 18.6208 95.8836 18.5541 98.4515 18.5791C98.7891 18.5791 99.1268 18.6166 99.4978 18.6375V22.0182H93.3574V24.9363H99.4686V28.4005H93.3574V31.3769H99.4853V34.8494Z" fill="#2D2D2D"/>
<path d="M112.141 34.8494H102.349V18.5916H105.588C107.497 18.5916 109.407 18.6166 111.312 18.5916C111.983 18.5916 112.254 18.7834 112.216 19.4795C112.166 20.3133 112.216 21.147 112.216 22.0766H105.926V24.9738H112.125V28.4797H105.926V31.3977H112.141V34.8494Z" fill="#2D2D2D"/>
<path d="M62.6803 34.8285V18.6625H72.4099V22.0224H66.2987V24.9405H72.4016V28.4296H66.2737V31.3894H72.4058V34.8243L62.6803 34.8285Z" fill="#2D2D2D"/>
<path d="M43.0876 18.6333H46.5893C46.6143 18.9835 46.656 19.2836 46.656 19.5838C46.656 22.7394 46.656 25.8993 46.656 29.0549C46.631 34.0198 41.7995 36.792 37.4599 34.3283C36.6585 33.8939 35.9896 33.2507 35.5243 32.4668C35.0589 31.683 34.8145 30.7877 34.817 29.8762C34.7211 26.1661 34.7878 22.456 34.7878 18.6625H38.3312V19.7838C38.3312 22.8395 38.3312 25.8909 38.3312 28.9549C38.3312 30.4639 38.9982 31.406 40.1404 31.6437C41.7453 31.9855 43.0584 30.8933 43.0584 29.1425C43.0835 26.0535 43.0584 22.9687 43.0584 19.8797L43.0876 18.6333Z" fill="#2D2D2D"/>
<path d="M60.2374 21.0345L57.3194 23.2522C56.6399 22.2225 55.752 21.6181 54.5306 21.6681C53.6968 21.7014 52.9715 21.914 52.7922 22.8353C52.613 23.7566 53.3008 24.0859 53.9595 24.3235C54.9599 24.7195 55.9938 25.028 56.9942 25.4199C59.4954 26.4037 60.5418 27.9211 60.4125 30.2889C60.2958 32.4524 58.7993 34.1824 56.469 34.8494C53.5509 35.6831 49.8783 34.3908 48.2234 31.8646L51.3374 29.4093C51.6292 29.7803 51.8626 30.1221 52.1336 30.4264C53.084 31.4894 54.5639 31.9813 55.5894 31.4102C55.8469 31.2632 56.0711 31.0643 56.2477 30.826C56.4242 30.5878 56.5493 30.3154 56.6149 30.0262C56.6607 29.6094 56.1605 28.9257 55.727 28.7256C54.5722 28.1837 53.3091 27.8919 52.1169 27.4083C50.3786 26.7288 49.1989 25.5866 49.0821 23.5815C48.9989 22.4975 49.2935 21.4182 49.9158 20.5268C50.5382 19.6354 51.45 18.987 52.4963 18.6917C53.8722 18.2543 55.3484 18.2441 56.7302 18.6623C58.1121 19.0805 59.3349 19.9076 60.2374 21.0345Z" fill="#2D2D2D"/>
<path d="M114.997 18.7083C117.348 18.7083 119.62 18.4957 121.833 18.7584C124.751 19.1002 126.694 21.8432 126.536 24.8321C126.481 26.2524 125.906 27.603 124.92 28.6263C123.933 29.6496 122.605 30.2741 121.187 30.3806C120.354 30.4389 119.52 30.3806 118.561 30.3806V34.8327H114.997V18.7083ZM118.586 27.0081C120.141 27.0081 121.679 27.3625 122.596 25.7992C122.86 25.3862 122.992 24.9027 122.975 24.4128C122.958 23.9229 122.793 23.4498 122.5 23.0562C121.508 21.6389 120.037 21.9932 118.586 22.0224V27.0081Z" fill="#2D2D2D"/>
<path d="M132.172 34.791C128.624 35.3079 128.624 35.3079 128.624 31.9397C128.624 27.8419 128.649 23.7482 128.624 19.6546C128.624 18.7834 128.874 18.4791 129.741 18.5541C130.525 18.6208 131.321 18.5541 132.192 18.5541L132.172 34.791Z" fill="#2D2D2D"/>
</g>
<defs>
<clipPath id="clip0_1132_568">
<rect width="166.642" height="35" fill="white" transform="translate(0.829956 0.241211)"/>
</clipPath>
</defs>
</svg>
