<svg width="89" height="36" viewBox="0 0 89 36" fill="none" xmlns="http://www.w3.org/2000/svg">
<g clip-path="url(#clip0_1132_593)">
<path d="M74.0568 0.416179V34.522H66.3007V0.241211H73.9987L74.0568 0.416179ZM24.5337 34.5232L22.8659 29.5666H10.9574L9.15149 34.5232H0L13.5095 0.241211H20.4095L33.7777 34.522H24.5337V34.5232ZM48.1858 35.2418C38.8749 35.2418 34.4026 27.8769 34.4026 21.5793C34.4026 15.2817 38.8749 7.9111 48.1858 7.9111C57.4966 7.9111 61.9733 15.2785 61.9733 21.5793C61.9733 27.88 57.5016 35.2418 48.1858 35.2418ZM83.3282 34.7651C82.3087 34.7646 81.3122 34.4618 80.4648 33.895C79.6173 33.3282 78.9569 32.5229 78.5671 31.5808C78.1773 30.6388 78.0756 29.6023 78.2748 28.6024C78.474 27.6026 78.9652 26.6842 79.6863 25.9635C80.4073 25.2427 81.3259 24.752 82.3259 24.5533C83.3259 24.3546 84.3623 24.4568 85.3042 24.8471C86.246 25.2373 87.051 25.8981 87.6174 26.7458C88.1838 27.5936 88.4861 28.5902 88.4861 29.6097C88.4853 30.9772 87.9415 32.2884 86.9743 33.2551C86.0071 34.2218 84.6957 34.7649 83.3282 34.7651ZM13.3676 22.6191H20.5538L16.9601 10.6669L13.3676 22.6191ZM48.1858 15.0936C44.8676 15.0936 42.0587 17.8293 42.0587 21.5793C42.0587 25.3292 44.8707 28.0594 48.1858 28.0594C51.5008 28.0594 54.319 25.3299 54.319 21.5793C54.319 17.8287 51.5071 15.0936 48.1858 15.0936Z" fill="#2D2D2D"/>
</g>
<defs>
<clipPath id="clip0_1132_593">
<rect width="88.4861" height="35" fill="white" transform="translate(0 0.241211)"/>
</clipPath>
</defs>
</svg>
