<svg width="117" height="36" viewBox="0 0 117 36" fill="none" xmlns="http://www.w3.org/2000/svg">
<g clip-path="url(#clip0_1132_609)">
<path fill-rule="evenodd" clip-rule="evenodd" d="M72.6325 27.6123C65.9159 32.587 56.1806 35.2412 47.7986 35.2412C36.0458 35.2412 25.4652 30.8732 17.4606 23.6083C16.8317 23.037 17.3952 22.2584 18.1498 22.7033C26.7884 27.7539 37.4696 30.7923 48.503 30.7923C55.9441 30.7923 64.1298 29.2453 71.6565 26.035C72.7935 25.5496 73.7444 26.7832 72.6325 27.6123Z" fill="#2D2D2D"/>
<path fill-rule="evenodd" clip-rule="evenodd" d="M75.4244 24.402C74.5691 23.2999 69.7492 23.8813 67.5858 24.1392C66.9267 24.22 66.8261 23.6437 67.4198 23.2291C71.2586 20.5143 77.5576 21.2979 78.2922 22.2079C79.0267 23.123 78.101 29.4678 74.4936 32.4961C73.9402 32.9612 73.4119 32.7135 73.6584 32.0967C74.4685 30.0643 76.2847 25.5092 75.4244 24.402Z" fill="#2D2D2D"/>
<path fill-rule="evenodd" clip-rule="evenodd" d="M67.737 4.06337V1.42434C67.737 1.02495 68.0389 0.757004 68.4011 0.757004H80.159C80.5363 0.757004 80.8382 1.03001 80.8382 1.42434V3.6842C80.8332 4.06337 80.5162 4.55882 79.9527 5.34244L73.86 14.0836C76.124 14.028 78.5138 14.3667 80.5665 15.5295C81.0294 15.7924 81.1552 16.1766 81.1904 16.5558V19.3718C81.1904 19.756 80.7678 20.2059 80.325 19.9734C76.7076 18.0674 71.9028 17.8601 67.903 19.9936C67.4955 20.216 67.0679 19.7711 67.0679 19.3869V16.7125C67.0679 16.2828 67.0729 15.5497 67.5005 14.8975L74.5593 4.72566H68.4162C68.0389 4.72566 67.737 4.45771 67.737 4.06337Z" fill="#2D2D2D"/>
<path fill-rule="evenodd" clip-rule="evenodd" d="M24.8456 20.5294H21.2685C20.9264 20.5041 20.6547 20.2463 20.6295 19.9177V1.46974C20.6295 1.10069 20.9364 0.807458 21.3188 0.807458H24.6545C25.0016 0.822614 25.2783 1.09057 25.3035 1.42424V3.83577H25.3689C26.2393 1.50513 27.8744 0.418175 30.0781 0.418175C32.317 0.418175 33.7156 1.50513 34.7219 3.83577C35.5872 1.50513 37.5544 0.418175 39.6625 0.418175C41.1618 0.418175 42.8019 1.04001 43.8032 2.43536C44.9352 3.98743 44.7037 6.24223 44.7037 8.21898L44.6987 19.862C44.6987 20.2311 44.3918 20.5294 44.0094 20.5294H40.4373C40.0801 20.5041 39.7933 20.2159 39.7933 19.862V10.0845C39.7933 9.30593 39.8637 7.36458 39.6927 6.62646C39.426 5.38784 38.6261 5.039 37.5896 5.039C36.7243 5.039 35.8187 5.62039 35.4514 6.55063C35.0841 7.48086 35.1193 9.03798 35.1193 10.0845V19.862C35.1193 20.2311 34.8124 20.5294 34.4301 20.5294H30.8579C30.4957 20.5041 30.2139 20.2159 30.2139 19.862L30.2089 10.0845C30.2089 8.02687 30.546 4.99856 28.0052 4.99856C25.4343 4.99856 25.5349 7.95103 25.5349 10.0845V19.862C25.5349 20.2311 25.228 20.5294 24.8457 20.5294" fill="#2D2D2D"/>
<path fill-rule="evenodd" clip-rule="evenodd" d="M90.961 0.418175C96.2689 0.418175 99.1417 4.99856 99.1417 10.8226C99.1417 16.4495 95.967 20.9136 90.961 20.9136C85.7487 20.9136 82.9111 16.3332 82.9111 10.6255C82.9111 4.88228 85.7839 0.418175 90.961 0.418175ZM90.9912 4.18461C88.3549 4.18461 88.1888 7.79431 88.1888 10.0441C88.1888 12.2989 88.1536 17.1118 90.961 17.1118C93.7332 17.1118 93.864 13.2291 93.864 10.8631C93.864 9.30594 93.7986 7.44547 93.3307 5.96923C92.9282 4.68511 92.1283 4.18461 90.9912 4.18461Z" fill="#2D2D2D"/>
<path fill-rule="evenodd" clip-rule="evenodd" d="M106.024 20.5294H102.462C102.105 20.5041 101.818 20.2159 101.818 19.862L101.813 1.40907C101.843 1.07035 102.14 0.807458 102.502 0.807458H105.818C106.13 0.822614 106.386 1.03496 106.457 1.32313V4.14416H106.522C107.523 1.62141 108.927 0.418175 111.397 0.418175C113.002 0.418175 114.567 0.999571 115.573 2.59209C116.509 4.06832 116.509 6.55063 116.509 8.33525V19.948C116.469 20.2715 116.172 20.5294 115.82 20.5294H112.232C111.905 20.5041 111.634 20.2614 111.599 19.948V9.92777C111.599 7.91059 111.83 4.95811 109.36 4.95811C108.489 4.95811 107.689 5.54456 107.292 6.43435C106.789 7.56175 106.723 8.6841 106.723 9.92777V19.862C106.718 20.2311 106.406 20.5294 106.024 20.5294" fill="#2D2D2D"/>
<path fill-rule="evenodd" clip-rule="evenodd" d="M58.3639 11.7175C58.3639 13.1179 58.3992 14.2857 57.6948 15.5294C57.1263 16.5405 56.2207 17.1624 55.2195 17.1624C53.8459 17.1624 53.041 16.1108 53.041 14.5587C53.041 11.495 55.7729 10.9389 58.3639 10.9389V11.7175ZM61.9713 20.4788C61.7348 20.6912 61.3927 20.7063 61.1261 20.5648C59.9387 19.5739 59.7224 19.1138 59.0733 18.1684C57.1112 20.1806 55.7175 20.7822 53.1768 20.7822C50.1631 20.7822 47.8236 18.9167 47.8236 15.1806C47.8236 12.2635 49.3933 10.2766 51.6373 9.30594C53.5793 8.44649 56.2911 8.29482 58.3639 8.05721V7.59209C58.3639 6.73769 58.4294 5.72657 57.9262 4.98845C57.4936 4.32617 56.6584 4.05316 55.9188 4.05316C54.5553 4.05316 53.3428 4.75589 53.046 6.21191C52.9856 6.53547 52.7491 6.85397 52.4221 6.86914L48.9556 6.49502C48.6638 6.4293 48.3368 6.19168 48.4223 5.74174C49.2172 1.51525 53.0208 0.241234 56.4219 0.241234C58.1627 0.241234 60.4368 0.706351 61.8103 2.03092C63.5511 3.66388 63.3851 5.84285 63.3851 8.21393V13.8155C63.3851 15.4991 64.0794 16.2372 64.7334 17.1472C64.9598 17.4707 65.0102 17.86 64.7183 18.1027C63.9888 18.7144 62.6908 19.8519 61.9763 20.4889L61.9713 20.4788" fill="#2D2D2D"/>
<path fill-rule="evenodd" clip-rule="evenodd" d="M11.4681 11.7177C11.4681 13.1181 11.5033 14.2859 10.7989 15.5296C10.2304 16.5407 9.32981 17.1625 8.32357 17.1625C6.95006 17.1625 6.1501 16.111 6.1501 14.5589C6.1501 11.4952 8.88204 10.9391 11.4681 10.9391V11.7177ZM15.0754 20.479C14.839 20.6914 14.4968 20.7065 14.2302 20.565C13.0428 19.5741 12.8315 19.114 12.1775 18.1686C10.2153 20.1807 8.82669 20.7824 6.28091 20.7824C3.27226 20.7824 0.927734 18.9168 0.927734 15.1807C0.927734 12.2637 2.50249 10.2768 4.74137 9.30613C6.68341 8.44667 9.39522 8.29501 11.4681 8.0574V7.59228C11.4681 6.73788 11.5335 5.72676 11.0354 4.98864C10.5977 4.32636 9.76249 4.05335 9.02794 4.05335C7.66449 4.05335 6.44694 4.75608 6.1501 6.2121C6.08973 6.53566 5.85326 6.85416 5.53127 6.86933L2.05975 6.49521C1.76794 6.42949 1.44595 6.19187 1.52644 5.74193C2.3264 1.51544 6.12495 0.241425 9.52603 0.241425C11.2668 0.241425 13.5409 0.706541 14.9144 2.03111C16.6552 3.66407 16.4892 5.84304 16.4892 8.21412V13.8157C16.4892 15.4993 17.1835 16.2374 17.8375 17.1474C18.069 17.4709 18.1193 17.8602 17.8275 18.1029C17.098 18.7146 15.7999 19.8521 15.0855 20.4891L15.0754 20.479" fill="#2D2D2D"/>
</g>
<defs>
<clipPath id="clip0_1132_609">
<rect width="115.581" height="35" fill="white" transform="translate(0.927734 0.241211)"/>
</clipPath>
</defs>
</svg>
