<svg width="107" height="36" viewBox="0 0 107 36" fill="none" xmlns="http://www.w3.org/2000/svg">
<path d="M46.0098 18.66C46.0098 23.6955 42.0706 27.4061 37.2362 27.4061C32.4018 27.4061 28.4625 23.6955 28.4625 18.66C28.4625 13.589 32.4018 9.91396 37.2362 9.91396C42.0706 9.91396 46.0098 13.589 46.0098 18.66ZM42.1691 18.66C42.1691 15.5133 39.886 13.3603 37.2362 13.3603C34.5863 13.3603 32.3032 15.5133 32.3032 18.66C32.3032 21.7752 34.5863 23.9597 37.2362 23.9597C39.886 23.9597 42.1691 21.7712 42.1691 18.66Z" fill="#2D2D2D"/>
<path d="M64.9372 18.66C64.9372 23.6955 60.9979 27.4061 56.1635 27.4061C51.3292 27.4061 47.3899 23.6955 47.3899 18.66C47.3899 13.593 51.3292 9.91396 56.1635 9.91396C60.9979 9.91396 64.9372 13.589 64.9372 18.66ZM61.0965 18.66C61.0965 15.5133 58.8134 13.3603 56.1635 13.3603C53.5137 13.3603 51.2306 15.5133 51.2306 18.66C51.2306 21.7752 53.5137 23.9597 56.1635 23.9597C58.8134 23.9597 61.0965 21.7712 61.0965 18.66Z" fill="#2D2D2D"/>
<path d="M83.076 10.4424V26.1442C83.076 32.6032 79.2668 35.2412 74.7637 35.2412C70.5247 35.2412 67.9735 32.4061 67.0113 30.0874L70.3552 28.6955C70.9506 30.119 72.4096 31.7988 74.7598 31.7988C77.6422 31.7988 79.4285 30.0204 79.4285 26.6726V25.4147H79.2944C78.4348 26.4755 76.7787 27.4021 74.6888 27.4021C70.3157 27.4021 66.3094 23.593 66.3094 18.6916C66.3094 13.7547 70.3157 9.91396 74.6888 9.91396C76.7747 9.91396 78.4309 10.8406 79.2944 11.8698H79.4285V10.4463H83.076V10.4424ZM79.7006 18.6916C79.7006 15.6119 77.6462 13.3603 75.0318 13.3603C72.382 13.3603 70.162 15.6119 70.162 18.6916C70.162 21.7397 72.382 23.9597 75.0318 23.9597C77.6462 23.9597 79.7006 21.7397 79.7006 18.6916Z" fill="#2D2D2D"/>
<path d="M89.0893 1.23885V26.8697H85.3433V1.23885H89.0893Z" fill="#2D2D2D"/>
<path d="M103.687 21.5386L106.668 23.5259C105.706 24.9494 103.388 27.4021 99.3812 27.4021C94.4127 27.4021 90.7021 23.5614 90.7021 18.6561C90.7021 13.455 94.4443 9.91002 98.9514 9.91002C103.49 9.91002 105.71 13.522 106.436 15.4739L106.834 16.4676L95.1422 21.3098C96.0373 23.0646 97.4293 23.9597 99.3812 23.9597C101.337 23.9597 102.693 22.9975 103.687 21.5386ZM94.5113 18.3919L102.327 15.1466C101.897 14.0543 100.604 13.2933 99.0815 13.2933C97.1296 13.2933 94.4127 15.0165 94.5113 18.3919Z" fill="#2D2D2D"/>
<path d="M14.2827 16.3847V12.6742H26.7866C26.9088 13.3208 26.9719 14.0858 26.9719 14.9139C26.9719 17.6978 26.2109 21.1402 23.7582 23.5929C21.3726 26.0771 18.3245 27.4021 14.2866 27.4021C6.8024 27.4021 0.509033 21.3059 0.509033 13.8216C0.509033 6.33742 6.8024 0.241211 14.2866 0.241211C18.427 0.241211 21.3765 1.86581 23.5926 3.98332L20.9743 6.60161C19.3852 5.11108 17.2322 3.95177 14.2827 3.95177C8.81738 3.95177 4.54294 8.35634 4.54294 13.8216C4.54294 19.2869 8.81738 23.6915 14.2827 23.6915C17.8276 23.6915 19.8465 22.268 21.1399 20.9746C22.1888 19.9257 22.8789 18.4273 23.151 16.3808L14.2827 16.3847Z" fill="#2D2D2D"/>
</svg>
