<svg width="61" height="41" viewBox="0 0 61 41" fill="none" xmlns="http://www.w3.org/2000/svg">
<g clip-path="url(#clip0_1132_619)">
<path d="M45.6215 20.2447C45.5225 20.1398 45.4054 20.0537 45.2757 19.9905C44.3473 19.4355 43.4362 18.8529 42.4836 18.3463C41.8218 18.004 41.1338 17.715 40.4262 17.4819C39.5617 17.1845 39.062 16.5223 39.1779 15.6181C39.204 15.4852 39.1958 15.3478 39.154 15.2189C39.1123 15.0901 39.0384 14.974 38.9393 14.8816C38.616 14.56 38.635 14.4978 39.1001 14.2315C39.013 14.0464 38.9413 13.8544 38.8857 13.6575C38.8608 13.5121 38.8764 13.3626 38.9306 13.2253C39.0759 12.8553 39.2661 12.5044 39.4044 12.1326C39.5098 11.8456 39.4044 11.6728 39.0586 11.6676C38.0903 11.6362 37.1411 11.3893 36.2802 10.9449C35.8175 10.7459 35.3656 10.5226 34.9265 10.2758C34.2004 9.81591 33.4759 9.88333 32.7412 10.1876C32.5907 10.2499 32.4922 10.4349 32.3694 10.5645L32.4351 10.6873L31.2249 10.6112C30.9535 10.5939 30.6475 10.4885 30.4175 10.5784C30.006 10.7374 29.6291 10.6752 29.2349 10.6008L27.5268 10.2741C27.6668 10.6907 27.4369 10.6648 27.2242 10.6198C26.8784 10.5611 26.5188 10.4712 26.1627 10.4228C25.9068 10.3864 25.644 10.3934 25.2792 10.3778L25.6492 10.8654C24.9793 11.1394 24.2428 11.2069 23.5343 11.0594C22.8258 10.9118 22.1775 10.5559 21.6727 10.0372C20.6354 8.91342 20.3501 7.50781 20.2256 6.06072C20.0683 4.24364 20.5212 2.54931 21.3494 0.941422C21.4357 0.746887 21.5096 0.547087 21.5707 0.34322L21.4324 0.242943C21.2137 0.361292 21.005 0.497168 20.8082 0.649237C19.8652 1.47197 19.238 2.59735 19.0344 3.83216C18.9203 4.52372 18.9479 5.23776 18.8822 5.93797C18.8701 6.07628 18.7232 6.20422 18.6385 6.33562C18.5313 6.21978 18.348 6.11086 18.3342 5.98983C18.2771 5.49191 18.2685 4.98707 18.2529 4.48568C18.2425 4.19177 18.2529 3.89958 18.2529 3.49848C18.0461 3.63336 17.871 3.81134 17.7394 4.02022C17.6078 4.22911 17.5229 4.46396 17.4905 4.70871C17.2017 6.15408 17.4127 7.513 18.2633 8.74744C18.3675 8.92383 18.4599 9.10692 18.5399 9.2955L18.367 9.39924C18.1279 9.14471 17.9083 8.8725 17.71 8.58492C17.4524 8.15443 17.2657 7.6807 17.0185 7.23983C16.9118 7.08757 16.7876 6.94831 16.6485 6.82489C16.5811 7.0168 16.5085 7.20698 16.4497 7.40062C16.4415 7.45846 16.4457 7.51737 16.4618 7.57351C16.6229 8.77339 17.1782 9.88571 18.0403 10.7357C19.0551 11.7506 20.2688 12.4525 21.5724 13.023C21.7125 13.0853 21.9303 13.2253 21.9286 13.3256C21.947 13.9417 21.9024 14.5581 21.7955 15.1651C21.5482 16.2613 20.4607 16.6209 19.5375 15.9691C18.967 15.5645 18.7733 15.5542 18.2789 16.0815C17.7837 16.6077 17.1514 16.9849 16.4531 17.1707C15.8169 17.3436 15.1858 17.5545 14.5513 17.7654C14.2236 17.8707 13.9045 18.0014 13.597 18.1562C13.4777 18.2184 13.412 18.3861 13.3221 18.5019L13.6454 18.7284L13.1267 19.0863L13.4863 19.375C13.4492 19.4249 13.4179 19.4789 13.393 19.5358C13.3549 19.6568 13.3273 19.7813 13.2944 19.9041C13.4293 19.9283 13.578 20.0009 13.6938 19.9663C13.9669 19.8752 14.2322 19.7625 14.4874 19.6292C15.5437 19.1105 16.6139 18.5918 17.6478 18.0334C18.6817 17.475 19.6257 17.5683 20.6302 18.132C21.1955 18.4483 21.8577 18.6091 22.4905 18.7855C23.0247 18.9342 23.5157 18.7561 23.9428 18.412C24.3231 18.1043 24.6966 17.7879 25.0786 17.4802C25.3695 17.2288 25.7191 17.0549 26.0951 16.9745C26.471 16.8941 26.8612 16.9099 27.2294 17.0203C27.6308 17.1489 28.024 17.3019 28.4068 17.4784C29.1641 17.7948 29.8988 18.17 30.6734 18.4362C31.8624 18.8691 33.1594 18.9067 34.3715 18.5434C35.3466 18.2374 36.1471 18.3169 36.792 19.1607C37.1049 19.5652 37.4836 19.6793 38.0126 19.522C39.2004 19.1624 40.3726 19.19 41.4808 19.8349C41.9787 20.1254 42.4766 20.4176 42.9919 20.6717C43.4727 20.9027 43.9663 21.1065 44.4701 21.282C44.6358 21.3207 44.8093 21.3084 44.9679 21.2467C45.1265 21.185 45.2628 21.0768 45.3587 20.9362L45.8947 20.727C45.8172 20.559 45.7258 20.3976 45.6215 20.2447Z" fill="#2D2D2D"/>
<path d="M57.4628 26.0555C57.1595 25.8408 56.8315 25.6632 56.486 25.5265C56.0001 25.3536 55.4849 25.2723 54.9905 25.1254C53.7778 24.7679 52.4877 24.7679 51.275 25.1254C49.183 25.7391 47.4714 26.9425 46.5292 29.0171C46.4185 29.2609 46.4306 29.5687 46.2958 29.7934C45.7771 30.6752 45.8653 31.652 45.7771 33.0161C45.8514 33.4691 45.9915 34.3128 46.1333 35.1565C46.3684 36.5483 47.2121 37.5614 48.2927 38.3498C49.4009 39.1572 50.5541 39.8591 52.0254 39.9767C53.0817 40.0631 54.0914 40.2481 55.1754 40.0303C56.3511 39.7951 57.2813 39.2263 58.1267 38.4535C58.4431 38.1648 58.6765 37.7861 58.9825 37.4836C60.1184 36.3633 60.6423 34.9611 60.8532 33.4241C61.0641 31.8871 60.7806 30.4711 60.2031 29.0552C59.6551 27.6893 58.6281 26.8145 57.4628 26.0555ZM55.9759 35.5645C54.9908 36.318 53.7488 36.654 52.5181 36.4998C50.9275 36.3045 50.1184 35.3778 49.579 33.929C49.1087 32.672 49.3525 31.5655 49.7899 30.4227C49.8746 30.2084 50.0064 30.0158 50.1754 29.8591C50.8549 29.2315 51.5015 28.6644 52.551 28.5469C53.3929 28.4518 54.1623 28.6091 54.9127 28.7751C56.0226 29.0206 56.6312 29.9507 56.9752 30.9743C57.1827 31.5898 57.1948 32.2709 57.2916 32.9003C57.1879 33.9895 56.773 34.9801 55.9759 35.5714V35.5645Z" fill="#2D2D2D"/>
<path d="M32.4784 6.27337C32.3954 6.37537 32.3694 6.66929 32.4386 6.72288C32.7393 6.93453 33.0529 7.12738 33.3774 7.30034C33.4725 7.44729 33.5866 7.65476 33.7232 7.66514C34.2107 7.7049 34.7035 7.6807 35.2308 7.6807L34.4095 8.66099L34.7398 8.80449L34.2038 9.22461C34.3335 9.30068 34.3992 9.34909 34.4718 9.38194C35.0613 9.64819 35.6613 9.89197 36.2387 10.1807C37.146 10.6222 38.1187 10.9141 39.1191 11.0452C39.5202 11.1039 39.7899 10.9967 39.8988 10.5732C39.9594 10.3508 40.0429 10.1352 40.1478 9.93001C40.3829 9.42336 40.7163 8.96841 41.1285 8.5915C41.5407 8.2146 42.0236 7.92324 42.5492 7.73429C43.7716 7.28651 44.349 6.4428 44.2228 5.20144C44.1848 4.82281 43.9929 4.64646 43.635 4.6724C43.2328 4.6944 42.8325 4.7435 42.4369 4.81936C41.7609 4.95767 41.2093 4.83837 40.727 4.30068C40.1858 3.68692 39.5167 3.28063 38.635 3.41029C38.1023 3.47805 37.5626 3.36021 37.1066 3.07662C36.7833 2.89335 36.4358 2.68242 36.0831 2.64439C34.9423 2.48678 33.7844 2.7713 32.8466 3.43969C32.7075 3.5648 32.5796 3.70191 32.4645 3.84944C32.7256 3.93243 32.9002 3.98256 33.0679 4.04653C33.1544 4.07938 33.3013 4.14335 33.2996 4.18658C33.284 4.56175 33.5849 4.53236 33.801 4.59287C33.9739 4.64301 34.1467 4.6724 34.311 4.71216L34.3283 4.83146C33.9324 5.11154 33.5313 5.38298 33.144 5.67517C32.9002 5.84873 32.6769 6.04942 32.4784 6.27337ZM43.8528 5.18761C43.8528 5.2827 43.9116 5.48153 43.839 5.5576C43.7031 5.70926 43.5206 5.81144 43.3203 5.84806C43.1721 5.87525 43.019 5.84832 42.8889 5.77217C42.7588 5.69602 42.6604 5.57571 42.6115 5.43312L43.8528 5.18761Z" fill="#2D2D2D"/>
<path d="M16.7609 21.6088C16.9611 21.5808 17.1572 21.5292 17.3452 21.4549C17.9019 21.1541 18.4517 20.8411 18.986 20.504C19.7121 20.0458 20.478 19.7433 21.3476 19.8124C21.7641 19.8552 22.1779 19.9204 22.5873 20.0078C23.7508 20.2395 24.738 19.9767 25.561 19.0777C26.0137 18.6176 26.4947 18.1863 27.0012 17.7862C27.2363 17.5873 27.1844 17.4075 26.9476 17.3436C26.6806 17.2546 26.3935 17.245 26.1212 17.3159C25.8006 17.4405 25.5114 17.6341 25.274 17.883C24.1381 19.0465 22.8535 19.5842 21.2145 19.0673C20.6777 18.9009 20.1238 18.7959 19.5634 18.7544C19.1947 18.7114 18.8214 18.7712 18.4846 18.9272C17.6582 19.375 16.8421 19.8747 16.6658 20.9501L16.9476 21.059L16.7038 21.4774L16.7609 21.6088Z" fill="#2D2D2D"/>
<path d="M41.1471 15.4504C40.746 15.4245 40.3484 15.3484 39.949 15.3173C39.6741 15.2965 39.5583 15.4469 39.5911 15.7218C39.6155 16.0345 39.7491 16.3285 39.9685 16.5526C40.1878 16.7767 40.479 16.9165 40.791 16.9476C41.2042 16.9943 41.6226 16.9857 42.0375 17.0237C43.0507 17.1153 44.0655 17.207 45.077 17.328C45.3916 17.366 45.689 17.4784 45.6164 16.9909L46.2786 17.105L46.1264 16.6451L46.799 16.5811C46.7567 16.4007 46.6583 16.2384 46.5178 16.1175C46.3774 15.9966 46.2022 15.9235 46.0175 15.9086C45.0268 15.7547 44.0292 15.6423 43.0317 15.5472C42.4058 15.4867 41.7782 15.4936 41.1471 15.4504Z" fill="#2D2D2D"/>
<path d="M18.6333 34.3577C19.7502 34.2384 20.8688 34.1399 21.9874 34.0431C23.8529 33.8806 25.7184 33.7319 27.5821 33.5659C28.1268 33.5175 28.253 33.393 28.2979 32.838C28.4123 31.5583 28.2586 30.2688 27.8467 29.0517C27.3142 27.5147 26.2457 26.3218 24.8626 25.4902C23.4397 24.6344 21.8525 24.3802 20.1945 24.6084C18.9448 24.7659 17.7722 25.2988 16.8318 26.1368C16.3045 26.607 15.874 27.188 15.4245 27.7378C14.6326 28.7059 14.2972 29.8678 14.1416 31.0745C13.9703 32.3754 14.0531 33.6971 14.3854 34.9663C14.828 36.6762 15.7374 38.0784 17.1689 39.0379C17.4186 39.2054 17.6791 39.3561 17.9487 39.4891C18.0939 39.5618 18.2409 39.6275 18.3895 39.688C19.4497 40.1156 20.5926 40.2988 21.7333 40.2239C21.8301 40.2239 21.9286 40.2343 22.0237 40.2239C22.0561 40.2222 22.0885 40.2187 22.1205 40.2136C23.0818 40.0614 24.0898 40.0407 24.994 39.7139C26.4999 39.1779 27.4335 37.9452 28.1959 36.5846C28.3308 36.3477 28.2979 36.1817 28.0662 36.0469C27.6185 35.7875 27.1845 35.4988 26.7194 35.2741C25.7011 34.7813 25.6821 34.7831 24.911 35.6198C24.4024 36.1594 23.7172 36.4986 22.9798 36.5759C22.5188 36.6393 22.0612 36.69 21.607 36.7281C20.2239 36.8439 19.0828 36.4065 18.2443 35.2758C17.8449 34.7277 17.9642 34.4217 18.6333 34.3577ZM17.7844 30.5628C18.049 29.4632 18.8218 28.8685 19.8142 28.4622C20.7694 28.0658 21.8394 28.0461 22.8086 28.4068C23.8788 28.7786 24.624 29.477 24.8539 30.7357C24.1433 30.7789 23.4881 30.8239 22.8311 30.8602C21.2958 30.9431 19.76 31.0233 18.2236 31.1005C17.7844 31.1247 17.6807 30.9967 17.7844 30.5628Z" fill="#2D2D2D"/>
<path d="M12.1464 34.5082C11.9096 33.7561 11.5379 33.125 10.8826 32.6565C10.7097 32.5337 10.5074 32.3885 10.7495 32.1378C11.1324 31.7494 11.4313 31.2863 11.6276 30.7774C11.8239 30.2685 11.9134 29.7246 11.8906 29.1797C11.8906 28.3947 11.7436 27.7308 11.2249 27.1568C10.0147 25.8169 8.61083 24.8937 6.7073 24.9335C5.66996 24.9559 4.61533 24.8781 3.56934 24.8574C2.8674 24.8436 2.16373 24.8574 1.4618 24.8453C1.17653 24.8453 1.06933 24.9421 1.06588 25.2533C1.05204 27.1361 1.01055 29.0206 0.97943 30.9051C0.953496 32.4853 0.932753 34.0638 0.901632 35.6441C0.901632 35.9311 0.82556 36.2163 0.835933 36.5085C0.863596 37.3107 0.91719 38.1112 0.958684 38.9134H0.913736C0.913736 39.1728 0.931025 39.4321 0.913736 39.6914C0.882616 40.0459 1.00018 40.1963 1.37362 40.1461C1.6429 40.1091 1.9155 40.1027 2.18621 40.1271C4.12604 40.3 6.06415 40.1928 7.99534 40.032C10.1046 39.8591 11.5085 38.7388 12.1828 36.7212C12.4104 35.999 12.3977 35.2225 12.1464 34.5082ZM4.52888 28.9169C4.52888 28.5711 4.66546 28.3982 5.05965 28.4518C5.39214 28.478 5.72607 28.4809 6.05896 28.4604C6.43759 28.4967 6.95281 28.5348 7.46457 28.6005C7.79479 28.642 8.0645 28.8443 8.06968 29.1745C8.07472 29.5969 8.01644 30.0176 7.89679 30.4227C7.84777 30.5148 7.77779 30.5941 7.6925 30.6542C7.60721 30.7142 7.509 30.7534 7.40578 30.7685C6.56553 30.8619 5.71837 30.9034 4.87293 30.9604C4.82721 30.9698 4.77989 30.9681 4.735 30.9553C4.6901 30.9425 4.64895 30.9191 4.61502 30.887C4.5811 30.855 4.5554 30.8152 4.5401 30.7711C4.5248 30.727 4.52036 30.6799 4.52715 30.6337C4.52715 30.0649 4.52369 29.4909 4.52888 28.9169ZM7.28303 36.595C6.79202 36.6814 6.28545 36.6866 5.7858 36.7281V36.6555C5.45385 36.6555 5.12362 36.6555 4.7934 36.6555C4.56691 36.6555 4.49603 36.5535 4.50468 36.3373C4.52715 35.7478 4.55136 35.1582 4.54444 34.5704C4.53526 34.5172 4.53795 34.4626 4.55233 34.4105C4.5667 34.3585 4.59239 34.3102 4.62758 34.2693C4.66277 34.2283 4.70657 34.1956 4.75586 34.1736C4.80515 34.1515 4.8587 34.1406 4.9127 34.1416C5.79962 34.0638 6.68828 33.9791 7.57694 33.9411C7.97978 33.9238 8.36187 34.477 8.41892 35.0545C8.50018 35.8999 8.11809 36.4497 7.28303 36.595Z" fill="#2D2D2D"/>
<path d="M44.0466 35.6734C43.393 35.3553 42.6963 35.1202 42.0134 34.8626C41.6676 34.7277 41.4013 34.8626 41.1385 35.134C40.7593 35.5431 40.3361 35.9089 39.8764 36.225C39.0656 36.754 38.1302 36.7782 37.2087 36.652C36.5172 36.5586 35.7876 36.5016 35.2343 36.0071C33.8668 34.7848 33.5296 33.2409 33.9307 31.512C34.0135 31.1475 34.1511 30.7978 34.3388 30.4746C34.5601 30.0977 34.8004 29.6741 35.1462 29.4373C36.6382 28.4189 38.7959 28.208 40.3467 29.2938C40.5181 29.4252 40.7044 29.5361 40.9017 29.624C40.97 29.6541 41.0439 29.6697 41.1187 29.6697C41.1934 29.6697 41.2673 29.6541 41.3356 29.624C42.0497 29.0915 42.7533 28.5434 43.4363 27.9712C43.4825 27.9041 43.511 27.8264 43.5188 27.7453C43.5267 27.6642 43.5137 27.5825 43.4812 27.5078C43.1078 27.0756 42.762 26.5483 42.2796 26.2976C40.8343 25.5403 39.3647 24.7658 37.6565 24.9438C36.002 24.9214 34.5843 25.5455 33.2323 26.3857C31.9496 27.1665 31.0284 28.4234 30.67 29.8816C30.4913 30.5187 30.3567 31.1675 30.2672 31.8232C30.1392 32.8605 30.1133 33.8892 30.4677 34.8954C30.7485 35.712 31.145 36.484 31.6451 37.188C32.1275 37.8588 32.6271 38.4881 33.3222 38.948C35.1617 40.1582 37.1672 40.4504 39.3145 40.096C41.5068 39.7329 43.1925 38.6523 44.3284 36.735C44.6551 36.1921 44.6309 35.9587 44.0466 35.6734Z" fill="#2D2D2D"/>
</g>
<defs>
<clipPath id="clip0_1132_619">
<rect width="60.0916" height="40" fill="white" transform="translate(0.835938 0.241211)"/>
</clipPath>
</defs>
</svg>
