<svg width="199" height="29" viewBox="0 0 199 29" fill="none" xmlns="http://www.w3.org/2000/svg">
<path d="M35.2881 0.241211L28.963 8.83557H63.4359C65.1791 8.83557 65.1574 9.49199 64.3053 10.6527C63.4402 11.8264 61.9926 13.8565 61.1102 15.052C60.6624 15.6563 59.8538 16.7561 62.5317 16.7561H76.6295L80.8071 11.0787C83.398 7.56185 81.0331 0.245556 71.7694 0.245556L35.2881 0.241211Z" fill="#2D2D2D"/>
<path d="M26.4025 28.2412L39.1092 10.9743H54.8763C56.6196 10.9743 56.5978 11.6351 55.7458 12.7914L52.5289 17.1734C52.0811 17.7776 51.2726 18.8774 53.9504 18.8774H75.0688C73.3169 21.2858 67.6135 28.2412 57.389 28.2412H26.4025ZM99.1651 18.8731L92.2748 28.2412H74.0994L80.9897 18.8731H99.1651ZM127.004 16.7517H82.5546L94.7093 0.241211H112.876L105.912 9.7093H114.019L120.992 0.241211H139.159L127.004 16.7517ZM125.444 18.8731L118.553 28.2412H100.387L107.277 18.8731H125.444ZM0.471802 22.5682H27.2415L25.7809 24.5548H0.471802V22.5682ZM0.471802 18.8731H29.9628L28.4979 20.8597H0.471802V18.8731ZM0.471802 26.2633H24.5246L23.0683 28.2412H0.471802V26.2633ZM198.454 24.5548H171.78L173.245 22.5682H198.454V24.5548ZM198.454 28.2412H169.072L170.523 26.2633H198.454V28.2412ZM175.962 18.8731H198.454V20.8641H174.501L175.962 18.8731ZM164.32 0.241211L152.165 16.7517H132.912L145.075 0.241211H164.32ZM131.356 18.8731C131.356 18.8731 130.03 20.6902 129.382 21.5596C127.104 24.6461 129.117 28.2369 136.564 28.2369H165.742L172.632 18.8731H131.356Z" fill="#2D2D2D"/>
</svg>
