<svg width="70" height="71" viewBox="0 0 70 71" fill="none" xmlns="http://www.w3.org/2000/svg">
<rect y="0.241211" width="70" height="70" rx="10" fill="#E6E6E6"/>
<circle cx="34.1176" cy="36.1236" r="25.7647" fill="#FF6250" stroke="#2D2D2D" stroke-width="2"/>
<path d="M45.2058 33.0418H22.2876C22.2285 33.0418 22.1805 33.0897 22.1805 33.1489V38.4636C22.1805 38.5227 22.2285 38.5706 22.2876 38.5706H45.2058C45.265 38.5706 45.3129 38.5227 45.3129 38.4636V33.1489C45.3129 33.0897 45.265 33.0418 45.2058 33.0418Z" fill="white"/>
<path d="M35.1881 32.9425C35.4623 32.9773 35.7398 32.9773 36.014 32.9425C36.3964 32.9425 36.7788 32.9425 37.1841 32.8966L39.4399 32.8431H39.8223C40.2506 32.9084 40.6862 32.9084 41.1146 32.8431C41.1883 32.8355 41.2626 32.8355 41.3364 32.8431C42.2693 32.9502 43.2024 32.8431 44.1353 32.8431H45.0146C45.1752 32.8431 45.3206 32.8431 45.4429 32.9425C45.5001 33.078 45.5286 33.2237 45.5269 33.3707V33.409C45.5269 33.5772 45.5269 33.776 45.5269 33.906C45.5305 34.0331 45.5511 34.1591 45.5882 34.2807C45.6011 34.3746 45.6011 34.4698 45.5882 34.5637C45.5882 35.2443 45.5882 35.8101 45.5882 36.3531V37.1178C45.5882 37.4007 45.5882 37.699 45.5882 38.0125C45.6143 38.228 45.5961 38.4466 45.5346 38.6548C45.5224 38.7028 45.4975 38.7465 45.4625 38.7815C45.4275 38.8165 45.3837 38.8415 45.3357 38.8537C45.2387 38.8844 45.1389 38.9049 45.0376 38.9148H43.8829H41.3899C40.7399 38.9148 40.0899 38.9148 39.4399 38.9148C38.4228 38.9148 37.3981 38.9149 36.3811 38.9684C35.364 39.0219 34.4923 39.0448 33.544 39.0448H31.7622H30.5922C29.6516 39.0448 28.7034 39.0984 27.7781 39.0448C26.654 39.0448 25.5606 39.0448 24.4671 39.106C24.2606 39.106 24.0541 39.106 23.8706 39.1596C23.3904 39.2725 22.886 39.2185 22.4405 39.0066C22.234 38.8689 22.0964 38.7237 22.2876 38.5631C22.4788 38.4025 22.6699 38.3107 23.3734 38.326C24.0769 38.3413 24.5588 38.2801 25.1629 38.326C25.3459 38.3177 25.5277 38.2922 25.7058 38.2495C26.4705 38.2495 27.2352 38.2496 27.9999 38.1884C28.2523 38.1884 28.5506 38.1884 28.8259 38.1884C29.1012 38.1884 29.5905 38.1884 29.9117 38.1884C30.814 38.1884 31.7241 38.1883 32.6188 38.1348C32.8788 38.1348 33.1846 38.1348 33.4675 38.1348C34.2927 38.1807 35.1199 38.1807 35.9451 38.1348C36.7098 38.2342 37.4746 38.1349 38.2393 38.196C38.5069 38.196 38.7899 38.196 39.0652 38.196H39.2334L40.587 38.1348H42.2769C42.6746 38.1348 43.0417 38.1348 43.4699 38.1348C43.6558 38.1456 43.8422 38.1456 44.0281 38.1348C44.1848 38.1209 44.3407 38.098 44.4947 38.066C44.5806 38.1143 44.6799 38.1331 44.7775 38.1196C44.8234 38.0431 44.7775 37.9283 44.7775 37.8366V35.8483V33.6307C44.7893 33.5649 44.7893 33.4977 44.7775 33.4319C44.7316 33.3861 44.6475 33.4319 44.5864 33.4319H44.3799H43.9822C43.7931 33.4673 43.6011 33.4852 43.4087 33.4854C42.6445 33.4434 41.8787 33.4434 41.1146 33.4854H40.6635C40.6067 33.4647 40.5457 33.4581 40.4858 33.4661C40.4258 33.4741 40.3688 33.4965 40.3194 33.5313H39.8835C39.6841 33.5029 39.4809 33.5376 39.3023 33.6307C39.027 33.6307 38.8588 33.516 38.5835 33.6307C38.1018 33.6307 37.6046 33.6307 37.1381 33.6307C36.4007 33.607 35.6627 33.6301 34.9282 33.6996C34.7222 33.7495 34.5071 33.7495 34.3011 33.6996C34.2476 33.6996 33.9493 33.6996 33.8652 33.6996C33.7308 33.6792 33.5942 33.6792 33.4598 33.6996C32.7487 33.6996 32.03 33.6996 31.3188 33.6996C31.0643 33.6801 30.8086 33.6801 30.5541 33.6996C30.0914 33.7836 29.6173 33.7836 29.1546 33.6996C28.8576 33.6622 28.5571 33.6622 28.26 33.6996C27.783 33.7953 27.2916 33.7953 26.8146 33.6996C26.6342 33.6786 26.4521 33.6786 26.2717 33.6996H26.1951H26.2793L23.7405 33.7454C23.4422 33.7454 23.1135 33.7454 22.8458 33.7454C22.8458 33.7454 22.7922 33.7454 22.7769 33.7837V34.0819C22.7769 34.8466 22.8841 35.5425 22.8535 36.2996C22.8267 36.7835 22.8267 37.2685 22.8535 37.7524C22.8754 37.9175 22.8569 38.0854 22.7999 38.2419C22.7816 38.2997 22.7587 38.356 22.7312 38.4101H22.4252V38.326C22.3564 38.1042 22.2875 37.8901 22.2111 37.6607C22.1346 37.4313 22.1653 36.9572 22.1423 36.5902C22.1081 36.4005 22.1081 36.2063 22.1423 36.0166C22.1767 35.8244 22.1767 35.6277 22.1423 35.4355C22.0506 35.0072 22.0581 34.4948 21.9893 34.059C22.0964 33.8192 22.1285 33.5526 22.0811 33.2942C22.0811 33.2101 22.0811 33.1336 22.0811 33.0648C22.082 33.047 22.0866 33.0297 22.0946 33.0137C22.1025 32.9978 22.1136 32.9836 22.1272 32.9721C22.1408 32.9606 22.1566 32.9521 22.1737 32.947C22.1908 32.9419 22.2087 32.9404 22.2264 32.9425C22.3638 32.9311 22.5019 32.9311 22.6393 32.9425C22.8967 32.9578 23.1524 32.9936 23.404 33.0496L23.7864 32.9119C23.8468 32.9855 23.9282 33.0388 24.0198 33.0648C24.1113 33.0908 24.2087 33.0881 24.2987 33.0571C24.9559 32.9241 25.6313 32.9061 26.2946 33.0037L26.5928 32.8431L26.9524 32.9883C27.2645 32.9461 27.5808 32.9461 27.893 32.9883C27.9845 32.9977 28.0766 32.9977 28.1681 32.9883C28.2981 32.9883 28.4434 32.9883 28.5505 32.9883C28.6825 32.9472 28.8238 32.9472 28.9558 32.9883H29.1317H28.9482C28.994 32.9042 29.1776 32.8813 29.3994 32.8736C29.7512 32.8736 30.164 32.8736 30.4469 32.7972C30.7772 32.7898 31.1067 32.7617 31.4334 32.7131C31.6215 32.6921 31.8113 32.6921 31.9993 32.7131C32.5011 32.6021 33.0154 32.5584 33.5287 32.583L34.2322 32.8048H34.3853H35.15L35.1881 32.9425Z" fill="white"/>
<path d="M22.0429 33.5925C21.997 33.7225 21.9588 33.8754 21.913 33.9825V33.9289C21.913 33.8524 21.913 33.6919 21.9589 33.6078C21.9774 33.5439 22.0029 33.4823 22.0353 33.4243L22.0429 33.5925Z" fill="white"/>
<path d="M35.5248 32.8201L35.6011 32.7741C35.6392 32.7688 35.6779 32.7688 35.716 32.7741C35.716 32.7741 35.716 32.7742 35.716 32.8124L35.5248 32.8201Z" fill="white"/>
<path d="M35.1959 32.9425L35.2647 32.9042L35.3259 32.9272L35.1882 32.9425H35.1959Z" fill="white"/>
<path d="M42.5294 33.5695H42.5906H42.5217C42.5217 33.5695 42.537 33.5772 42.5294 33.5695Z" fill="white"/>
<path d="M34.2476 32.9272L34.3623 32.8889L34.4082 32.9272H34.4159H34.24H34.2476Z" fill="white"/>
<path d="M31.6935 32.2695L31.7318 32.2771L31.6782 32.2848L31.6935 32.2695Z" fill="white"/>
<path d="M38.6982 33.5848L38.8512 33.6383H38.8588L38.7059 33.5771L38.6982 33.5848Z" fill="white"/>
<path d="M40.587 33.5618H40.4417H40.4341L40.6023 33.5695L40.587 33.5618Z" fill="white"/>
<path d="M40.7629 33.5159L40.587 33.5618L40.6023 33.5695L40.7706 33.5159H40.7629Z" fill="white"/>
<path d="M39.18 38.3106L39.3482 38.3183V38.3106H39.1724H39.18Z" fill="white"/>
<path d="M36.3965 24.2401H31.0818C31.0227 24.2401 30.9747 24.288 30.9747 24.3471V47.2653C30.9747 47.3245 31.0227 47.3724 31.0818 47.3724H36.3965C36.4556 47.3724 36.5036 47.3245 36.5036 47.2653V24.3471C36.5036 24.288 36.4556 24.2401 36.3965 24.2401Z" fill="white"/>
<path d="M30.8829 34.3648C30.9255 34.0886 30.9255 33.8075 30.8829 33.5313C30.8829 33.1566 30.8829 32.7666 30.837 32.369L30.7834 30.0748C30.7834 29.9448 30.7834 29.8148 30.7834 29.6925C30.8487 29.2642 30.8487 28.8284 30.7834 28.4001C30.7758 28.3264 30.7758 28.2521 30.7834 28.1784C30.8828 27.2454 30.7834 26.3125 30.7834 25.3719V24.5001C30.7834 24.3395 30.7835 24.1942 30.8829 24.0718C31.0184 24.0147 31.1642 23.9861 31.3112 23.9877H31.8541C31.9782 23.9798 32.1012 23.9593 32.2212 23.9266C32.3176 23.9137 32.4152 23.9137 32.5117 23.9266C33.1923 23.9266 33.7582 23.9266 34.2935 23.9266H35.0582H35.9528C36.1684 23.8997 36.3872 23.9179 36.5953 23.9801C36.6432 23.9923 36.687 24.0172 36.722 24.0522C36.757 24.0872 36.7819 24.131 36.7941 24.1789C36.8276 24.2756 36.8508 24.3756 36.863 24.4771V25.6319L36.9011 28.1248C36.9011 28.7748 36.9011 29.4248 36.9011 30.0748C36.9011 31.0919 36.9011 32.1166 36.9547 33.1337C37.0082 34.1507 37.0312 35.0225 37.0389 35.9707V37.7524V38.9225C37.0389 39.863 37.0924 40.8113 37.0389 41.7366C36.9978 42.8406 37.0181 43.946 37.0999 45.0478C37.0999 45.2466 37.1 45.4607 37.1458 45.6442C37.2587 46.1244 37.2048 46.6288 36.9929 47.0742C36.8553 47.2807 36.7099 47.4183 36.5493 47.2271C36.3888 47.036 36.3048 46.8449 36.3124 46.1413C36.3201 45.4378 36.2665 44.956 36.3124 44.3518C36.308 44.1685 36.2822 43.9864 36.2359 43.8089C36.2359 43.0442 36.2358 42.2795 36.1746 41.5148C36.1597 41.2397 36.1597 40.9641 36.1746 40.689C36.1746 40.3296 36.1746 39.9625 36.1746 39.6031C36.1746 38.7007 36.1748 37.7907 36.1136 36.8883C36.1136 36.636 36.1136 36.3301 36.1136 36.0472C36.1633 35.222 36.1633 34.3946 36.1136 33.5695C36.213 32.8048 36.1135 32.0401 36.1746 31.2754C36.1895 30.9978 36.1895 30.7195 36.1746 30.4419V30.266C36.1746 29.8148 36.1365 29.3484 36.1136 28.9125C36.1136 28.3542 36.1136 27.7884 36.1136 27.2225C36.1136 26.8249 36.0754 26.4578 36.1136 26.0295C36.1282 25.8437 36.1282 25.6571 36.1136 25.4713C36.0997 25.3146 36.0767 25.1589 36.0447 25.0048C36.0919 24.9184 36.1132 24.8201 36.1059 24.7219C36.0218 24.676 35.907 24.7219 35.8229 24.7219H33.8271H31.6094C31.5433 24.7141 31.4766 24.7141 31.4105 24.7219C31.4105 24.7754 31.4105 24.8596 31.4105 24.9207V25.1271V25.5324C31.4398 25.7222 31.4552 25.9139 31.4565 26.106C31.4142 26.8701 31.4142 27.636 31.4565 28.4001V28.8666C31.4182 29.0501 31.4565 29.1495 31.51 29.2031C31.51 29.3484 31.51 29.4936 31.51 29.6389C31.476 29.8375 31.5082 30.0417 31.6017 30.2201C31.6017 30.4954 31.4946 30.6637 31.5634 30.939C31.5634 31.4207 31.5634 31.9178 31.5634 32.3843C31.5437 33.1217 31.5668 33.8595 31.6323 34.5942C31.6823 34.8002 31.6823 35.0153 31.6323 35.2213C31.6323 35.2748 31.6782 35.573 31.6323 35.6571C31.612 35.7915 31.612 35.9281 31.6323 36.0625C31.6323 36.7736 31.6323 37.4925 31.6323 38.2037C31.6323 38.456 31.6323 38.739 31.6323 38.9684C31.7127 39.4314 31.7127 39.9047 31.6323 40.3678C31.5909 40.6646 31.5909 40.9657 31.6323 41.2625C31.7281 41.7395 31.7281 42.2308 31.6323 42.7078C31.6154 42.8884 31.6154 43.0701 31.6323 43.2507L31.5941 43.3272L31.6323 43.2431L31.6706 45.7818C31.6706 46.0801 31.6706 46.4089 31.6706 46.6766C31.6706 46.6766 31.6706 46.7301 31.7089 46.7377C31.7089 46.7377 31.7087 46.7377 31.747 46.7377H31.9688C32.7335 46.7377 33.4295 46.6307 34.1865 46.6613C34.6705 46.688 35.1554 46.688 35.6394 46.6613C35.8045 46.6394 35.9725 46.6578 36.1289 46.7149C36.1868 46.7332 36.243 46.7561 36.2971 46.7836H36.3352V47.3113V47.0896H36.2512L35.5858 47.3036L34.5153 47.3725C34.3282 47.4068 34.1365 47.4068 33.9494 47.3725C33.7546 47.3382 33.5554 47.3382 33.3606 47.3725C32.9323 47.4643 32.42 47.4566 31.9841 47.5254C31.7443 47.4183 31.4777 47.3863 31.2194 47.4336H30.9899C30.9721 47.4327 30.9547 47.4281 30.9388 47.4202C30.9228 47.4123 30.9088 47.4011 30.8973 47.3875C30.8858 47.3739 30.8772 47.3581 30.8721 47.341C30.867 47.324 30.8655 47.3061 30.8676 47.2884C30.86 47.1508 30.86 47.013 30.8676 46.8754C30.8867 46.6185 30.9224 46.363 30.9746 46.1107L30.8447 45.7284C30.9169 45.667 30.9689 45.5852 30.9935 45.4937C31.0181 45.4021 31.0141 45.3052 30.9823 45.216C30.8494 44.5587 30.8314 43.8835 30.9289 43.2201L30.776 42.9218C30.8218 42.7995 30.8677 42.6925 30.9136 42.5625C30.8827 42.2484 30.8982 41.9315 30.9595 41.6219C30.968 41.5303 30.968 41.4382 30.9595 41.3466C30.9595 41.2166 30.9595 41.0713 30.9595 40.9642C30.9183 40.8323 30.9183 40.6909 30.9595 40.5589L30.9976 40.3754L30.9595 40.5666C30.883 40.5207 30.86 40.3372 30.8447 40.1154C30.8447 39.7637 30.8448 39.3507 30.7683 39.0678C30.7685 38.7372 30.7403 38.4071 30.6841 38.0813C30.671 37.8929 30.671 37.7038 30.6841 37.5154C30.5732 37.0136 30.5295 36.4993 30.5542 35.986C30.6306 35.7566 30.7071 35.5195 30.776 35.2824V35.1219V34.3572L30.8829 34.3648Z" fill="white"/>
<path d="M31.5407 47.5101C31.663 47.556 31.816 47.5942 31.923 47.6401H31.8694C31.7625 47.6472 31.6551 47.6472 31.5481 47.6401C31.4843 47.6216 31.4227 47.596 31.3646 47.5637L31.5407 47.5101Z" fill="white"/>
<path d="M30.7607 34.0589L30.7148 33.9825C30.7095 33.9419 30.7095 33.9007 30.7148 33.8601C30.7148 33.8601 30.7148 33.8601 30.753 33.8601L30.7607 34.0589Z" fill="white"/>
<path d="M30.8217 46.0495C30.8184 46.0293 30.8184 46.0085 30.8217 45.9883V46.0419V46.0495Z" fill="white"/>
<path d="M30.2251 29.5318V29.5931V29.5166C30.2249 29.5217 30.2249 29.5267 30.2251 29.5318Z" fill="white"/>
<path d="M30.8829 34.3571L30.837 34.2807L30.86 34.2195L30.8829 34.3648V34.3571Z" fill="white"/>
<path d="M31.51 27.0236V26.9624V27.0236C31.5177 27.016 31.51 27.0236 31.51 27.0236Z" fill="white"/>
<path d="M30.8676 35.2977L30.8293 35.183L30.8676 35.1447V35.1371L30.8599 35.313L30.8676 35.2977Z" fill="white"/>
<path d="M30.21 37.8595L30.2176 37.8212L30.2253 37.8671L30.21 37.8595Z" fill="white"/>
<path d="M31.5252 30.8471L31.5788 30.6942V30.6865L31.5176 30.8395L31.5252 30.8471Z" fill="white"/>
<path d="M31.5023 28.9583V29.1112L31.51 28.9506L31.5023 28.9583Z" fill="white"/>
<path d="M31.4564 28.7824L31.5023 28.9583L31.51 28.9507L31.4564 28.7748V28.7824Z" fill="white"/>
</svg>
