<svg width="70" height="71" viewBox="0 0 70 71" fill="none" xmlns="http://www.w3.org/2000/svg">
<rect y="0.241211" width="70" height="70" rx="10" fill="#E6E6E6"/>
<path d="M57.8634 31.8305C59.5497 30.0304 60.4098 27.4929 59.948 24.8744C59.1698 20.4608 54.966 17.5172 50.5524 18.2955C46.1388 19.0737 43.1952 23.2775 43.9734 27.6911C44.0693 28.2346 44.2213 28.7597 44.4116 29.261L23.3317 32.978C23.3473 32.4403 23.3023 31.8964 23.2065 31.3529C22.4282 26.9393 18.2244 23.9958 13.8108 24.774C9.39719 25.5522 6.45363 29.7561 7.23186 34.1697C7.69358 36.7882 9.36142 38.8799 11.57 39.9933C9.88364 41.7934 9.02355 44.3308 9.48527 46.9494C10.2635 51.363 14.4673 54.3065 18.8809 53.5283C23.2945 52.75 26.2381 48.5462 25.4599 44.1326C25.364 43.5891 25.212 43.0641 25.0217 42.5627L46.1016 38.8458C46.0861 39.3834 46.131 39.9274 46.2269 40.4708C47.0051 44.8844 51.2089 47.828 55.6225 47.0497C60.0361 46.2715 62.9797 42.0677 62.2014 37.6541C61.7315 35.037 60.0637 32.9453 57.8634 31.8305Z" fill="#2D2D2D"/>
</svg>
